<?xml version="1.0" standalone="no"?>
<!DOCTYPE svg PUBLIC "-//W3C//DTD SVG 1.1//EN" "http://www.w3.org/Graphics/SVG/1.1/DTD/svg11.dtd" >
<svg xmlns="http://www.w3.org/2000/svg">
<metadata>
<json>
<![CDATA[
{
	"fontFamily": "icomoon",
	"majorVersion": 1,
	"minorVersion": 0,
	"version": "Version 1.0",
	"fontId": "icomoon",
	"psName": "icomoon",
	"subFamily": "Regular",
	"fullName": "icomoon",
	"description": "Font generated by IcoMoon."
}
]]>
</json>
</metadata>
<defs>
<font id="icomoon" horiz-adv-x="1024">
<font-face units-per-em="1024" ascent="960" descent="-64" />
<missing-glyph horiz-adv-x="1024" />
<glyph unicode="&#x20;" horiz-adv-x="512" d="" />
<glyph unicode="&#xe900;" glyph-name="e-arrow-three" data-tags="e-arrow-three" horiz-adv-x="1638" d="M103.526 517.427l428.646 428.442c12.047 12.64 29.995 17.764 46.9 13.389s30.113-17.564 34.514-34.462c4.401-16.898-0.696-34.854-13.318-46.92l-394.547-394.445 394.547-394.752c12.622-12.066 17.719-30.022 13.318-46.92s-17.61-30.087-34.514-34.462c-16.905-4.376-34.853 0.748-46.9 13.389l-428.646 428.749c-18.527 18.879-18.527 49.115 0 67.994v0zM615.526 517.427l428.646 428.442c12.047 12.64 29.995 17.764 46.9 13.389s30.113-17.564 34.514-34.462c4.401-16.898-0.696-34.854-13.318-46.92l-394.547-394.445 394.547-394.752c12.622-12.066 17.719-30.022 13.318-46.92s-17.61-30.087-34.514-34.462c-16.905-4.376-34.853 0.748-46.9 13.389l-428.646 428.749c-18.527 18.879-18.527 49.115 0 67.994v0zM1127.526 517.427l428.646 428.442c12.047 12.64 29.995 17.764 46.9 13.389s30.113-17.564 34.514-34.462c4.401-16.898-0.696-34.854-13.318-46.92l-394.547-394.445 394.547-394.752c12.622-12.066 17.719-30.022 13.318-46.92s-17.61-30.087-34.514-34.462c-16.905-4.376-34.853 0.748-46.9 13.389l-428.646 428.749c-18.527 18.879-18.527 49.115 0 67.994v0z" />
<glyph unicode="&#xe901;" glyph-name="e-close" data-tags="e-close" d="M948.507-42.975c-10.894 0-32.681 0-43.574 10.894l-871.489 871.489c-21.787 21.787-21.787 54.468 0 76.255s54.468 21.787 76.255 0l871.489-871.489c21.787-21.787 21.787-54.468 0-76.255 0-10.894-21.787-10.894-32.681-10.894zM77.018-42.975c-10.894 0-32.681 0-43.574 10.894-21.787 21.787-21.787 54.468 0 76.255l871.489 871.489c21.787 21.787 54.468 21.787 76.255 0s21.787-54.468 0-76.255l-871.489-871.489c0-10.894-21.787-10.894-32.681-10.894z" />
<glyph unicode="&#xe902;" glyph-name="e-dashboard" data-tags="e-dashboard" d="M386.060 766.97l-131.825 117.701c-9.416 7.062-23.54 7.062-32.956 0l-68.267-61.205v9.416c0 9.416-7.062 16.478-16.478 16.478s-16.478-7.062-16.478-16.478v-37.664l-28.248-28.248c-7.062-7.062-7.062-16.478 0-23.54s16.478-7.062 23.54-2.354l124.763 112.993 124.763-112.993c7.062-7.062 18.832-7.062 23.54 0 7.062 9.416 7.062 18.832-2.354 25.894 2.354 0 0 0 0 0zM341.333 722.244c-9.416 0-16.478-7.062-16.478-16.478v-122.409h-171.844v120.055c0 9.416-7.062 16.478-16.478 16.478s-16.478-7.062-16.478-16.478v-129.471c0-14.124 11.77-23.54 23.54-23.54 0 0 0 0 0 0h190.676c14.124 0 23.54 9.416 23.54 23.54 0 0 0 0 0 0v129.471c0 9.416-7.062 18.832-16.478 18.832zM240.11 517.444c-65.913 0-120.055-54.143-120.055-120.055s54.143-120.055 120.055-120.055c65.913 0 120.055 54.143 120.055 120.055s-54.143 120.055-120.055 120.055zM153.011 397.389c0 40.018 28.248 75.329 68.267 84.745v-72.975l-63.559-37.664c-2.354 7.062-4.708 16.478-4.708 25.894zM176.552 338.538v0l61.205 35.31 49.434-49.434c-35.31-21.186-82.391-16.478-110.639 14.124zM322.501 380.91c-2.354-11.77-7.062-21.186-11.77-30.602v0l-54.143 54.143v77.683c44.726-11.77 75.329-56.497 65.913-101.223zM529.655 618.667h393.122c9.416 0 16.478 7.062 16.478 16.478s-7.062 16.478-16.478 16.478v58.851c0 14.124-11.77 25.894-25.894 25.894h-49.434c-14.124 0-25.894-11.77-25.894-25.894v-56.497h-35.31v105.931c0 16.478-14.124 30.602-30.602 30.602h-42.372c-16.478 0-30.602-14.124-30.602-30.602v-105.931h-35.31v188.322c0 18.832-14.124 35.31-35.31 35.31h-32.956c-18.832 0-35.31-14.124-35.31-35.31v-188.322h-16.478c-9.416 0-16.478 7.062-16.478 16.478v204.8c0 9.416-7.062 16.478-16.478 16.478s-16.478-7.062-16.478-16.478c0 0 0 0 0 0v-204.8c0-28.248 23.54-51.789 51.789-51.789zM854.51 703.411h32.956v-49.434h-32.956v49.434zM717.977 755.2h32.956v-101.223h-32.956v101.223zM581.444 839.945h35.31v-188.322h-35.31v188.322zM922.777 312.644c0 0 0 0 0 0h-393.122c-9.416 0-16.478 7.062-16.478 16.478v25.894l56.497 56.497c7.062 7.062 16.478 7.062 23.54 0l18.832-21.186c18.832-18.832 51.789-18.832 72.975 0l70.621 70.621c7.062 7.062 16.478 7.062 23.54 0l21.186-18.832c21.186-18.832 51.789-18.832 72.975 0l61.205 61.205c7.062 7.062 7.062 16.478 0 23.54s-16.478 7.062-23.54 0l-63.559-58.851c-7.062-7.062-16.478-7.062-23.54 0l-18.832 18.832c-21.186 18.832-51.789 18.832-72.975 0l-70.621-70.621c-7.062-7.062-16.478-7.062-23.54 0l-18.832 18.832c-21.186 18.832-51.789 18.832-72.975 0l-32.956-32.956v129.471c0 9.416-7.062 16.478-16.478 16.478s-16.478-7.062-16.478-16.478v-204.8c0-28.248 23.54-51.789 51.789-51.789h393.122c9.416 0 16.478 7.062 16.478 16.478-2.354 11.77-9.416 21.186-18.832 21.186zM939.255 960h-854.51c-49.434-2.354-87.099-44.726-84.745-94.161v-699.145c-2.354-49.434 35.31-91.807 84.745-94.161h273.067v-32.956h-68.267c-37.664 0-68.267-30.602-68.267-68.267v-16.478c0-9.416 7.062-16.478 16.478-16.478h546.133c9.416 0 16.478 7.062 16.478 16.478v16.478c0 37.664-30.602 68.267-68.267 68.267h-68.267v32.956h273.067c49.434 2.354 87.099 44.726 84.745 94.161v699.145c4.708 49.434-32.956 91.807-82.391 94.161zM734.455 4.267c18.832 0 35.31-14.124 35.31-35.31h-513.177c0 18.832 14.124 35.31 35.31 35.31h442.556zM393.122 39.577v32.956h240.11v-32.956h-240.11zM991.044 166.694c2.354-30.602-21.186-56.497-51.789-61.205h-854.51c-30.602 2.354-54.143 30.602-51.789 61.205v42.372h955.733v-42.372zM991.044 244.377h-955.733v621.462c-2.354 30.602 18.832 56.497 49.434 61.205h854.51c30.602-2.354 54.143-30.602 51.789-61.205v0-621.462z" />
<glyph unicode="&#xe903;" d="M512 960c-283.569 0-512-228.431-512-512s228.431-512 512-512 512 228.431 512 512c0 283.569-228.431 512-512 512zM512 148.677c-23.631 0-39.385 23.631-39.385 39.385 0 23.631 15.754 39.385 39.385 39.385 23.631 7.877 39.385-15.754 39.385-39.385 0-15.754-15.754-39.385-39.385-39.385zM551.385 700.062v-338.708c0-23.631-15.754-47.262-39.385-47.262s-39.385 23.631-39.385 47.262c0 0 0 0 0 0v338.708c0 23.631 15.754 47.262 39.385 47.262s39.385-15.754 39.385-47.262c0 7.877 0 7.877 0 0z" />
<glyph unicode="&#xe904;" d="M512 235.323c-23.631 0-39.385-23.631-39.385-47.262s15.754-39.385 39.385-39.385c23.631 0 39.385 23.631 39.385 39.385 0 23.631-15.754 47.262-39.385 47.262z" />
<glyph unicode="&#xe905;" d="M512 747.323c-23.631 0-47.262-23.631-39.385-47.262v-338.708c0 0 0 0 0 0 0-23.631 23.631-39.385 47.262-39.385s39.385 23.631 39.385 47.262v330.831c0 0 0 0 0 0-7.877 31.508-23.631 47.262-47.262 47.262z" />
<glyph unicode="&#xe906;" glyph-name="e-log" data-tags="e-log" horiz-adv-x="987" d="M513.103 738.068h-54.902l-25.797 64.394h-163.289l-25.758-64.394h-54.902c-17.066-0.022-30.895-13.851-30.917-30.915v-189.048c0.022-17.175 13.939-31.091 31.112-31.114h324.216c17.175 0.022 31.091 13.939 31.114 31.112v189.048c-0.022 17.052-13.829 30.872-30.873 30.917h-0.004zM221.972 738.068v0zM531.141 517.986c-0.022-10.062-8.173-18.213-18.233-18.235h-324.256c-10.062 0.022-18.213 8.173-18.235 18.233v189.166c0 9.962 8.076 18.038 18.038 18.038v0h63.606l25.758 64.394h145.723l25.758-64.394h63.803c9.962 0 18.038-8.076 18.038-18.038v0-189.046zM367.97 716.918c-37.804 0-68.45-30.646-68.45-68.45s30.646-68.45 68.45-68.45c37.804 0 68.45 30.646 68.45 68.45 0 0.014 0 0.028 0 0.042v-0.002c-0.045 37.778-30.669 68.389-68.448 68.411h-0.002zM367.97 591.478c-31.496 0-57.029 25.533-57.029 57.029s25.533 57.029 57.029 57.029c31.496 0 57.029-25.533 57.029-57.029v0c-0.045-31.478-25.551-56.984-57.025-57.029h-0.004zM805.415 381.086c-38.065 0-68.923-30.858-68.923-68.923s30.858-68.923 68.923-68.923c38.065 0 68.923 30.858 68.923 68.923v0c-0.045 38.047-30.876 68.878-68.919 68.923h-0.004zM805.415 270.809c-22.839 0-41.354 18.515-41.354 41.354s18.515 41.354 41.354 41.354c22.839 0 41.354-18.515 41.354-41.354v0c-0.022-22.83-18.524-41.331-41.352-41.354h-0.002zM973.43 341.662l-19.889 3.938c-12.632 2.504-22.024 13.496-22.024 26.683 0 6.037 1.968 11.614 5.298 16.124l-0.052-0.074 12.485 17.054c1.67 2.254 2.673 5.089 2.673 8.158 0 3.814-1.549 7.266-4.052 9.761v0l-27.018 26.978c-2.499 2.486-5.944 4.023-9.749 4.023-2.888 0-5.568-0.885-7.786-2.399l0.048 0.031-16.778-11.343c-4.271-2.927-9.551-4.675-15.239-4.675-13.559 0-24.798 9.93-26.843 22.914l-0.020 0.154-3.23 20.874c-0.978 6.708-6.686 11.804-13.587 11.815h-38.165c-0.003 0-0.007 0-0.011 0-6.694 0-12.273-4.771-13.523-11.098l-0.014-0.088-4.923-25.718c-2.501-12.636-13.495-22.031-26.684-22.031-5.68 0-10.954 1.743-15.315 4.723l0.093-0.060-21.662 14.651c-2.17 1.483-4.85 2.369-7.738 2.369-3.804 0-7.25-1.537-9.749-4.023l0.001 0.001-27.018-26.978c-2.503-2.496-4.052-5.948-4.052-9.762 0-3.070 1.003-5.905 2.7-8.196l-0.026 0.037 12.485-17.054c3.277-4.436 5.246-10.013 5.246-16.050 0-13.186-9.392-24.179-21.851-26.654l-0.173-0.029-19.889-3.938c-6.414-1.264-11.185-6.844-11.185-13.537 0-0.004 0-0.008 0-0.012v0.001-38.164c0.008-6.912 5.102-12.631 11.74-13.618l0.075-0.009 20.874-3.23c13.138-2.065 23.067-13.304 23.067-26.863 0-5.688-1.748-10.968-4.735-15.332l0.060 0.093-11.343-16.778c-1.49-2.169-2.38-4.852-2.38-7.743 0-3.805 1.542-7.25 4.034-9.744l26.978-27.018c2.501-2.496 5.953-4.040 9.766-4.040 3.066 0 5.9 0.998 8.192 2.688l-0.038-0.027 17.054 12.485c4.436 3.277 10.013 5.246 16.050 5.246 13.186 0 24.179-9.392 26.654-21.851l0.029-0.173 3.938-19.889c1.28-6.395 6.85-11.146 13.53-11.146 0.007 0 0.013 0 0.020 0h38.163c6.912 0.008 12.631 5.102 13.618 11.74l0.009 0.075 2.245 14.69c2.083 13.117 13.313 23.025 26.857 23.025 6.047 0 11.632-1.975 16.146-5.315l-0.074 0.052 11.815-8.783c2.254-1.67 5.089-2.673 8.158-2.673 3.814 0 7.266 1.549 9.761 4.052v0l26.978 27.018c2.493 2.494 4.034 5.939 4.034 9.744 0 2.891-0.89 5.574-2.41 7.79l0.030-0.047-11.343 16.778c-2.927 4.271-4.675 9.551-4.675 15.239 0 13.559 9.93 24.798 22.914 26.843l0.154 0.020 20.874 3.23c6.713 0.996 11.807 6.716 11.815 13.626v38.165c-0.154 6.65-4.994 12.125-11.338 13.26l-0.084 0.012zM957.046 301.686l-9.177-1.418c-26.401-4.219-46.334-26.829-46.334-54.095 0-11.392 3.48-21.972 9.435-30.734l-0.122 0.191 4.962-7.365-10.594-10.594-2.442 1.812c-8.974 6.689-20.28 10.709-32.524 10.709-27.328 0-49.979-20.024-54.082-46.201l-0.040-0.309-0.473-2.993h-14.966l-1.654 8.743c-5.019 25.477-27.178 44.427-53.764 44.427-12.178 0-23.427-3.976-32.519-10.701l0.149 0.105-7.483-5.514-10.594 10.594 5.159 7.286c5.894 8.602 9.412 19.236 9.412 30.691 0 27.287-19.964 49.912-46.083 54.063l-0.311 0.041-9.177 1.418v14.966l8.743 1.654c25.477 5.019 44.427 27.178 44.427 53.764 0 12.178-3.976 23.427-10.701 32.519l0.105-0.149-5.514 7.483 10.594 10.594 12.249-8.31c8.601-5.892 19.233-9.409 30.686-9.409 26.569 0 48.717 18.927 53.697 44.034l0.058 0.348 2.757 14.533h14.966l1.418-9.177c4.183-26.441 26.812-46.417 54.107-46.417 11.37 0 21.931 3.466 30.683 9.4l-0.192-0.123 7.365 4.962 10.594-10.594-5.514-7.483c-6.62-8.944-10.596-20.193-10.596-32.371 0-26.585 18.95-48.744 44.080-53.706l0.347-0.057 8.704-1.654z" />
<glyph unicode="&#xe907;" d="M512 960c-283.569 0-512-228.431-512-512s228.431-512 512-512 512 228.431 512 512c0 283.569-228.431 512-512 512zM732.554 408.615h-441.108c-23.631 0-47.262 15.754-47.262 39.385 7.877 23.631 23.631 39.385 47.262 39.385h448.985c23.631 0 39.385-23.631 39.385-47.262 0-15.754-23.631-31.508-47.262-31.508z" />
<glyph unicode="&#xe908;" glyph-name="e-plus-box" data-tags="e-plus-box" d="M955.733 378.469h-887.467c-32.958 6.481-57.476 35.143-57.476 69.531s24.518 63.050 57.027 69.457l0.449 0.074h887.467c32.958-6.481 57.476-35.143 57.476-69.531s-24.518-63.050-57.027-69.457l-0.449-0.074zM505.679-64c-0.014 0-0.030 0-0.047 0-37.703 0-68.267 30.564-68.267 68.267 0 0.889 0.017 1.774 0.051 2.655l-0.004-0.127v882.41c-0.804 4.005-1.264 8.608-1.264 13.319 0 39.099 31.696 70.795 70.795 70.795s70.795-31.696 70.795-70.795c0-4.711-0.46-9.315-1.338-13.768l0.074 0.449v-882.41c0.031-0.769 0.049-1.671 0.049-2.577 0-37.703-30.564-68.267-68.267-68.267-0.906 0-1.808 0.018-2.706 0.053l0.129-0.004z" />
<glyph unicode="&#xe90a;" glyph-name="e-arrow-export" data-tags="e-arrow-export" d="M324.677 728.637c-8.34-0.316-16.616-3.669-23.006-10.059-13.447-13.447-13.447-35.248 0-48.695 6.301-6.301 14.436-9.649 22.686-10.045l-0.038 0.002h350.683l-434.058-434.058c-0.031-0.030-0.067-0.066-0.103-0.103-13.305-13.305-13.305-34.878 0-48.183 0.054-0.054 0.108-0.108 0.162-0.161l-0.008 0.008c0.060-0.061 0.132-0.134 0.204-0.206 13.393-13.393 35.074-13.446 48.533-0.16l433.963 433.963-0.205-350.274c0.122-8.803 3.547-17.58 10.272-24.305s15.502-10.15 24.317-10.272h-0.011c8.876-0.073 17.769 3.274 24.536 10.041s10.115 15.66 10.041 24.529v433.758c0.131 8.805-3.159 17.64-9.869 24.35s-15.545 10-24.338 9.869h-0.012z" />
<glyph unicode="&#xe90d;" glyph-name="e-check" data-tags="e-check" d="M512 960c-282.77 0-512-229.23-512-512s229.23-512 512-512c282.77 0 512 229.23 512 512v0c0 282.77-229.23 512-512 512v0zM733.026 675.013l70.026-63.961-384-425.354-198.026 198.341 67.033 67.033 124.928-125.007 320.039 348.948z" />
<glyph unicode="&#xe910;" glyph-name="e-error" data-tags="e-error" d="M874.338 810.338c-92.624 92.475-220.503 149.662-361.739 149.662-282.77 0-512-229.23-512-512s229.23-512 512-512c141.236 0 269.115 57.187 361.746 149.669l-0.007-0.007c92.643 92.77 149.935 220.864 149.935 362.338s-57.292 269.567-149.94 362.344l0.005-0.005zM713.964 246.036c-7.127-7.125-16.971-11.531-27.845-11.531s-20.718 4.407-27.845 11.531l-146.274 146.274-153.285-153.285c-7.075-6.84-16.726-11.056-27.361-11.056-21.752 0-39.385 17.633-39.385 39.385 0 10.635 4.215 20.286 11.066 27.372l153.274 153.274-146.353 146.274c-7.418 7.172-12.024 17.212-12.024 28.329 0 21.752 17.633 39.385 39.385 39.385 11.116 0 21.157-4.606 28.318-12.013l146.364-146.285 139.264 139.343c7.172 7.418 17.212 12.024 28.329 12.024 21.752 0 39.385-17.633 39.385-39.385 0-11.116-4.606-21.157-12.013-28.318l-139.275-139.354 146.274-146.274c7.125-7.127 11.531-16.971 11.531-27.845s-4.407-20.718-11.531-27.845v0z" />
<glyph unicode="&#xe912;" glyph-name="e-export-report" data-tags="e-export-report" horiz-adv-x="922" d="M749.945 606.686h-152.988v-90.821h152.988c45.494 0 80.767-23.208 80.767-43.232v-402.579c0-20.024-35.273-43.232-80.767-43.232h-578.105c-45.494 0-80.767 23.208-80.767 43.232v402.579c0 20.024 35.273 43.232 80.767 43.232h152.737v90.821h-152.988c-5.452 0.681-11.763 1.070-18.164 1.070-78.53 0-143.39-58.527-153.341-134.341l-0.084-0.782v-402.579c10.035-76.597 74.895-135.124 153.425-135.124 6.401 0 12.711 0.389 18.908 1.144l-0.745-0.074h578.105c5.452-0.681 11.763-1.070 18.164-1.070 78.53 0 143.39 58.527 153.341 134.341l0.084 0.782v402.579c-10.048 76.583-74.901 135.095-153.421 135.095-6.313 0-12.538-0.378-18.654-1.113l0.738 0.072zM326.587 733.785c0.008 0 0.018 0 0.027 0 12.528 0 23.867 5.092 32.060 13.32l56.807 56.807v-461.981c0-25.080 20.331-45.411 45.411-45.411s45.411 20.331 45.411 45.411v0 464.998l59.905-59.905c8.083-7.533 18.964-12.158 30.925-12.158 25.080 0 45.411 20.331 45.411 45.411 0 11.961-4.624 22.842-12.183 30.952l0.025-0.027-135.645 135.561c-8.173 8.179-19.468 13.238-31.944 13.238-0.051 0-0.102 0-0.153 0h-0.662c-0.043 0-0.094 0-0.145 0-12.476 0-23.77-5.059-31.943-13.238l-135.562-135.562c-8.155-8.207-13.196-19.518-13.196-32.005 0-25.080 20.331-45.411 45.411-45.411 0.015 0 0.029 0 0.044 0h-0.002z" />
<glyph unicode="&#xe913;" glyph-name="e-failed-summery" data-tags="e-failed-summery" horiz-adv-x="1025" d="M512.473 960c-282.566-0.269-511.527-229.396-511.527-512 0-282.77 229.23-512 512-512s511.999 229.23 512 511.999v0.001c-0.27 282.828-229.608 512-512.473 512v0zM112.113 448c0 0.195-0.001 0.426-0.001 0.657 0 90.251 30.040 173.485 80.666 240.25l-0.72-0.99 560.488-559.778c-66.055-49.913-149.557-79.946-240.074-79.946-221.018 0-400.214 179.058-400.438 400.023v0.022zM832.020 206.98l-560.803 560.251c66.339 50.695 150.439 81.228 241.671 81.228 220.982 0 400.123-179.141 400.123-400.123 0-91.093-30.441-175.077-81.705-242.333l0.714 0.977z" />
<glyph unicode="&#xe914;" glyph-name="e-filter" data-tags="e-filter" horiz-adv-x="1001" d="M950.105 952.429h-899.454c-0.117 0.001-0.256 0.002-0.395 0.002-16.193 0-30.259-9.111-37.35-22.486l-0.111-0.229c-3.024-5.722-4.8-12.507-4.8-19.706 0-9.435 3.049-18.158 8.216-25.237l-0.085 0.122 329.649-464.188v-0.454c11.509-15.413 18.439-34.831 18.474-55.867v-378.566c0-0.067-0.001-0.147-0.001-0.227 0-23.249 18.847-42.096 42.096-42.096 0 0 0 0 0.001 0v0c5.986 0.011 11.684 1.235 16.864 3.438l-0.283-0.107 185.191 70.639c16.195 5.41 27.661 20.437 27.661 38.142 0 0.512-0.010 1.021-0.029 1.529l0.002-0.073v307.314c0.034 21.044 6.964 40.462 18.651 56.124l-0.177-0.248v0.454l330.178 464.188c5.090 6.952 8.144 15.674 8.144 25.109 0 7.203-1.78 13.99-4.925 19.946l0.112-0.233c-7.202 13.604-21.268 22.715-37.461 22.715-0.139 0-0.277-0.001-0.416-0.002h0.021zM613.264 450.612c-17.698-23.809-28.348-53.774-28.392-86.225v-301.115l-168.988-64.431v365.536c-0.163 32.505-10.941 62.462-29.042 86.614l0.272-0.379-319.579 450.636h865.687zM613.264 450.612" />
<glyph unicode="&#xe915;" glyph-name="e-login-jira" data-tags="e-login-jira" d="M904.021 960h-784.043c-66.223-0.097-119.882-53.755-119.979-119.969v-160.009h80.043v160c0.048 22.037 17.899 39.888 39.931 39.936h784.048c22.103 0 40.021-17.918 40.021-40.021v-784.043c0-22.103-17.918-40.021-40.021-40.021v0h-784.043c-22.103 0-40.021 17.918-40.021 40.021v0 160.085h-79.957v-160c0.097-66.223 53.755-119.882 119.969-119.979h784.052c66.223 0.097 119.882 53.755 119.979 119.969v784.052c-0.097 66.223-53.755 119.882-119.969 119.979h-0.009zM480 696.576l-56.576-56.576 151.979-151.979h-575.403v-80.043h575.403l-151.979-151.979 56.576-56.576 248.576 248.576z" />
<glyph unicode="&#xe917;" glyph-name="e-more" data-tags="e-more" horiz-adv-x="273" d="M136.557 686.975c75.418 0 136.557 61.139 136.557 136.557s-61.139 136.557-136.557 136.557c-75.418 0-136.557-61.139-136.557-136.557 0-0.031 0-0.062 0-0.093v0.005c0.101-75.36 61.19-136.418 136.552-136.468h0.005zM136.557 209.114c-75.418 0-136.557-61.139-136.557-136.557s61.139-136.557 136.557-136.557c75.418 0 136.557 61.139 136.557 136.557v0c-0.050 75.398-61.159 136.507-136.552 136.557h-0.005zM136.557 584.513c-75.418 0-136.557-61.139-136.557-136.557s61.139-136.557 136.557-136.557c75.418 0 136.557 61.139 136.557 136.557v0c-0.050 75.398-61.159 136.507-136.552 136.557h-0.005z" />
<glyph unicode="&#xe918;" glyph-name="e-refresh" data-tags="e-refresh" horiz-adv-x="941" d="M200.554 749.372c70.022 63.652 163.472 102.623 266.025 102.623 95.187 0 182.531-33.574 250.838-89.527l-0.701 0.557-118.135-4.496c-14.406-0.994-25.715-12.924-25.715-27.495 0-14.835 11.723-26.932 26.41-27.533l0.054-0.002h0.999l181.406 6.743c14.737 0.553 26.474 12.633 26.474 27.455 0 0.036 0 0.071 0 0.107v-0.006 3.247l-6.494 179.908c-0.575 14.729-12.655 26.452-27.473 26.452-15.184 0-27.493-12.309-27.493-27.493 0-0.366 0.007-0.73 0.021-1.093l-0.002 0.052 4.329-112.89c-76.878 62.98-176.196 101.15-284.429 101.15-116.807 0-223.231-44.457-303.273-117.374l0.359 0.323c-91.469-83.353-148.644-202.977-148.644-335.955 0-37.958 4.659-74.828 13.435-110.070l-0.659 3.124c2.993-12.128 13.777-20.98 26.629-20.98 0.004 0 0.008 0 0.012 0h-0.001c0.077-0.001 0.168-0.001 0.258-0.001 2.218 0 4.366 0.304 6.402 0.874l-0.167-0.040c12.116 3.073 20.937 13.881 20.937 26.75 0 2.326-0.288 4.584-0.831 6.741l0.040-0.19c-7.125 28.201-11.214 60.575-11.214 93.905 0 116.823 50.234 221.912 130.28 294.847l0.318 0.285zM912.526 548.652c-3.039 12.088-13.811 20.895-26.641 20.895-15.149 0-27.431-12.281-27.431-27.431 0-2.32 0.288-4.573 0.83-6.725l-0.040 0.189c7.299-28.462 11.488-61.135 11.488-94.788 0-219.135-177.644-396.779-396.779-396.779-96.687 0-185.296 34.583-254.134 92.054l0.632-0.513 119.55 10.823c13.787 1.65 24.372 13.275 24.372 27.372 0 15.219-12.337 27.556-27.556 27.556-0.667 0-1.328-0.024-1.982-0.070l0.088 0.005-180.823-16.65c-14.117-1.261-25.099-13.033-25.099-27.37 0-0.916 0.045-1.821 0.132-2.713l-0.009 0.113 16.65-181.323c1.317-14.013 12.987-24.903 27.216-24.976h0.007c0.362-0.047 0.782-0.074 1.207-0.074s0.845 0.027 1.256 0.079l-0.049-0.005c14.117 1.261 25.099 13.033 25.099 27.37 0 0.916-0.045 1.821-0.132 2.713l0.009-0.113-9.74 110.392c70.92-58.057 161.18-94.931 259.854-99.86l1.058-0.042c7.742 0 15.485-0.583 22.978-0.583 0.104 0 0.227 0 0.35 0 116.563 0 222.732 44.502 302.444 117.443l-0.34-0.307c91.362 83.329 148.464 202.873 148.464 335.754 0 38.182-4.714 75.262-13.593 110.691l0.664-3.128z" />
<glyph unicode="&#xe91a;" glyph-name="e-sort-icon" data-tags="e-sort-icon" horiz-adv-x="1006" d="M658.747 82.274h-146.274c-0.191 0.007-0.416 0.012-0.642 0.012-9.745 0-17.644-7.9-17.644-17.644 0-0.226 0.004-0.45 0.013-0.674l-0.001 0.032v-109.726c-0.010-0.216-0.015-0.469-0.015-0.724 0-9.701 7.864-17.566 17.566-17.566 0.255 0 0.508 0.005 0.76 0.016l-0.036-0.001h146.274c0.216-0.010 0.469-0.015 0.724-0.015 9.701 0 17.566 7.864 17.566 17.566 0 0.255-0.005 0.508-0.016 0.76l0.001-0.036v109.726c0.010 0.216 0.015 0.469 0.015 0.724 0 9.701-7.864 17.566-17.566 17.566-0.255 0-0.508-0.005-0.76-0.016l0.036 0.001zM384.473 155.451h-109.726v786.274c0.010 0.216 0.015 0.469 0.015 0.724 0 9.701-7.864 17.566-17.566 17.566-0.255 0-0.508-0.005-0.76-0.016l0.036 0.001h-109.726c-0.216 0.010-0.469 0.015-0.724 0.015-9.701 0-17.566-7.864-17.566-17.566 0-0.255 0.005-0.508 0.016-0.76l-0.001 0.036v-786.274h-109.726c-0.343 0.025-0.743 0.039-1.146 0.039-7.393 0-13.679-4.737-15.99-11.342l-0.036-0.119c-0.992-2.122-1.571-4.607-1.571-7.227 0-5.046 2.147-9.59 5.577-12.77l0.011-0.010 182.823-182.902c3.498-3.090 8.092-5.012 13.132-5.12h0.022c0.037 0 0.080 0 0.124 0 5.039 0 9.624 1.948 13.042 5.131l-0.012-0.011 182.508 182.272c3.369 3.599 5.514 8.381 5.749 13.66l0.002 0.046c0.010 0.216 0.015 0.469 0.015 0.724 0 9.701-7.864 17.566-17.566 17.566-0.255 0-0.508-0.005-0.76-0.016l0.036 0.001zM768.473 374.823h-256c-0.216 0.010-0.469 0.015-0.724 0.015-9.701 0-17.566-7.864-17.566-17.566 0-0.255 0.005-0.508 0.016-0.76l-0.001 0.036v-109.726c-0.010-0.216-0.015-0.469-0.015-0.724 0-9.701 7.864-17.566 17.566-17.566 0.255 0 0.508 0.005 0.76 0.016l-0.036-0.001h256c0.191-0.007 0.416-0.012 0.642-0.012 9.745 0 17.644 7.9 17.644 17.644 0 0.226-0.004 0.45-0.013 0.674l0.001-0.032v109.726c0.010 0.216 0.015 0.469 0.015 0.724 0 9.701-7.864 17.566-17.566 17.566-0.255 0-0.508-0.005-0.76-0.016l0.036 0.001zM1001.314 954.88c-3.214 3.178-7.635 5.142-12.515 5.142-0.308 0-0.614-0.008-0.919-0.023l0.043 0.002h-475.451c-0.216 0.010-0.469 0.015-0.724 0.015-9.701 0-17.566-7.864-17.566-17.566 0-0.255 0.005-0.508 0.016-0.76l-0.001 0.036v-109.726c-0.010-0.216-0.015-0.469-0.015-0.724 0-9.701 7.864-17.566 17.566-17.566 0.255 0 0.508 0.005 0.76 0.016l-0.036-0.001h475.451c0.216-0.010 0.469-0.015 0.724-0.015 9.701 0 17.566 7.864 17.566 17.566 0 0.255-0.005 0.508-0.016 0.76l0.001-0.036v109.726c0.014 0.264 0.022 0.572 0.022 0.883 0 4.761-1.869 9.085-4.912 12.279l0.007-0.007zM878.198 667.451h-365.726c-0.216 0.010-0.469 0.015-0.724 0.015-9.701 0-17.566-7.864-17.566-17.566 0-0.255 0.005-0.508 0.016-0.76l-0.001 0.036v-109.726c-0.010-0.216-0.015-0.469-0.015-0.724 0-9.701 7.864-17.566 17.566-17.566 0.255 0 0.508 0.005 0.76 0.016l-0.036-0.001h365.726c0.216-0.010 0.469-0.015 0.724-0.015 9.701 0 17.566 7.864 17.566 17.566 0 0.255-0.005 0.508-0.016 0.76l0.001-0.036v109.726c0.010 0.216 0.015 0.469 0.015 0.724 0 9.701-7.864 17.566-17.566 17.566-0.255 0-0.508-0.005-0.76-0.016l0.036 0.001z" />
<glyph unicode="&#xe91b;" glyph-name="e-table-config" data-tags="e-table-config" d="M904.021 960h-784.043c-66.223-0.097-119.882-53.755-119.979-119.969v-160.009h80.043v160c0.048 22.037 17.899 39.888 39.931 39.936h784.048c22.103 0 40.021-17.918 40.021-40.021v-784.043c0-22.103-17.918-40.021-40.021-40.021v0h-784.043c-22.103 0-40.021 17.918-40.021 40.021v0 160.085h-79.957v-160c0.097-66.223 53.755-119.882 119.969-119.979h784.052c66.223 0.097 119.882 53.755 119.979 119.969v784.052c-0.097 66.223-53.755 119.882-119.969 119.979h-0.009zM575.403 488.021h-575.403v-80.043h575.403zM592.043 160.341v575.403h-80.043v-575.403z" />
<glyph unicode="&#xe91c;" d="M732.554 487.385h-441.108c-23.631 0-39.385-15.754-47.262-39.385 0-23.631 23.631-39.385 47.262-39.385h448.985c23.631 0 39.385 15.754 39.385 39.385s-23.631 39.385-47.262 39.385z" />
<glyph unicode="&#xe91d;" glyph-name="e-pie-chat" data-tags="e-pie-chat" horiz-adv-x="1027" d="M987.372 472.655h-448.985v450.402c-0.089 16.333-13.35 29.538-29.696 29.538 0 0 0 0 0 0v0c-0.5 0.002-1.093 0.003-1.685 0.003-139.981 0-266.671-56.911-358.192-148.857l-0.019-0.019c-91.788-91.987-148.547-218.959-148.547-359.188 0-280.685 227.402-508.258 508.023-508.534h0.026c0.211 0 0.46 0 0.709 0 280.334 0 507.589 227.255 507.589 507.589 0 0.028 0 0.056 0 0.084v-0.005c-0.045 16.019-13.041 28.988-29.066 28.988-0.055 0-0.111 0-0.166 0h0.008zM826.053 126.070c-81.308-80.962-193.45-131.015-317.283-131.015-248.145 0-449.347 200.988-449.693 449.052v0.033c0.217 124.076 50.396 236.39 131.486 317.933l-0.021-0.021c74.392 74.749 175.112 123.237 287.075 130.376l1.299 0.066v-448.197c-0.002-0.123-0.003-0.268-0.003-0.414 0-16.405 12.993-29.776 29.25-30.383l0.055-0.002h448.197c-8.197-112.796-56.434-212.976-130.397-287.621l0.034 0.034zM878.434 811.441s0 0 0 0v0c-92.254 91.825-219.425 148.639-359.866 148.795h-0.030c0 0 0 0 0 0-16.345 0-29.606-13.206-29.696-29.53v-479.005c0.21-15.718 13.001-28.378 28.748-28.378 0.389 0 0.776 0.008 1.16 0.023l-0.055-0.002h478.681c0.142-0.003 0.31-0.004 0.478-0.004 15.86 0 28.753 12.703 29.060 28.49v0.029s0 0 0 0.394c-0.147 140.192-56.842 267.113-148.5 359.208l0.020-0.020z" />
<glyph unicode="&#xe91e;" glyph-name="e-wall-clock" data-tags="e-wall-clock" d="M512-64c-282.77 0-512 229.23-512 512s229.23 512 512 512c282.77 0 512-229.23 512-512v0c0-282.77-229.23-512-512-512v0zM512 885.248c-241.485 0-437.248-195.763-437.248-437.248s195.763-437.248 437.248-437.248c241.485 0 437.248 195.763 437.248 437.248v0c0 0.065 0 0.142 0 0.219 0 241.364-195.664 437.029-437.029 437.029-0.077 0-0.154 0-0.231 0h0.011zM686.373 373.321h-199.314c-0.242-0.006-0.528-0.009-0.814-0.009-20.198 0-36.571 16.374-36.571 36.571 0 0.286 0.003 0.571 0.010 0.856l-0.001-0.042v261.632c0 20.642 16.734 37.376 37.376 37.376s37.376-16.734 37.376-37.376v-224.256h161.938c20.642 0 37.376-16.734 37.376-37.376s-16.734-37.376-37.376-37.376v0z" />
<glyph unicode="&#xe91f;" glyph-name="e-realtime-report" data-tags="e-realtime-report" horiz-adv-x="1009" d="M1003.52 775.68l-179.2 179.2c-5.12 2.56-10.24 5.12-15.36 5.12h-583.68c-33.28 0-58.88-25.6-58.88-58.88v-38.4c-99.84-38.4-166.4-135.68-166.4-240.64 0-12.8 7.68-20.48 20.48-20.48h145.92v-30.72h-76.8c-10.24 0-20.48-7.68-20.48-20.48 0-81.92 38.4-153.6 97.28-202.24 0-2.56-2.56-5.12-2.56-7.68v-330.24c0-33.28 25.6-58.88 58.88-58.88h724.48c33.28 0 58.88 25.6 58.88 58.88v750.080c2.56 5.12 0 10.24-2.56 15.36zM829.44 893.44l112.64-112.64h-92.16c-10.24 0-20.48 7.68-20.48 20.48v92.16zM240.64 839.68v-199.68h-199.68c10.24 107.52 92.16 192 199.68 199.68zM110.080 529.92h220.16c5.12 0 10.24 2.56 12.8 5.12l156.16 156.16c79.36-94.72 66.56-232.96-28.16-309.76-40.96-33.28-89.6-51.2-140.8-51.2-112.64 0-209.92 87.040-220.16 199.68zM350.72 599.040v171.52c46.080-5.12 87.040-20.48 122.88-51.2l-122.88-120.32zM970.24 10.24c0-10.24-7.68-20.48-20.48-20.48h-724.48c-10.24 0-20.48 7.68-20.48 20.48v312.32c38.4-20.48 79.36-33.28 125.44-33.28 143.36 0 261.12 117.76 261.12 261.12s-117.76 261.12-261.12 261.12c-10.24 0-20.48-7.68-20.48-20.48v-220.16h-110.080v30.72h58.88c10.24 0 20.48 7.68 20.48 20.48v240.64c0 10.24-7.68 20.48-20.48 20.48-17.92-2.56-35.84-5.12-53.76-7.68v25.6c0 10.24 7.68 20.48 20.48 20.48h565.76v-120.32c0-33.28 25.6-58.88 58.88-58.88h120.32v-732.16zM796.16 353.28c-10.24 5.12-23.040 5.12-33.28 0l-51.2 51.2c7.68 20.48-2.56 43.52-23.040 51.2s-43.52-2.56-51.2-23.040c-5.12-10.24-2.56-20.48 0-30.72l-48.64-48.64c-20.48 10.24-43.52 0-53.76-17.92-10.24-20.48 0-43.52 17.92-53.76s43.52 0 53.76 17.92c5.12 10.24 5.12 23.040 0 33.28l48.64 48.64c12.8-5.12 25.6-5.12 38.4 0l48.64-48.64c-10.24-20.48 0-43.52 17.92-53.76 20.48-10.24 43.52 0 53.76 17.92 5.12 10.24 5.12 23.040 0 33.28l76.8 76.8c20.48-10.24 43.52-2.56 53.76 15.36 10.24 20.48 2.56 43.52-15.36 53.76-5.12 2.56-12.8 5.12-17.92 5.12v0c-23.040 0-40.96-17.92-40.96-40.96 0-5.12 0-10.24 2.56-15.36l-76.8-71.68zM581.12 307.2c-2.56-2.56-5.12-2.56-10.24-2.56v0c-7.68 0-12.8 5.12-12.8 12.8s5.12 12.8 12.8 12.8c2.56 0 7.68-2.56 10.24-2.56v0 0c5.12-7.68 5.12-15.36 0-20.48zM673.28 404.48v0c-7.68 0-12.8 5.12-12.8 12.8s5.12 12.8 12.8 12.8c7.68 0 12.8-5.12 12.8-12.8s-5.12-12.8-12.8-12.8zM778.24 302.080c-7.68 0-12.8 5.12-12.8 12.8s5.12 12.8 12.8 12.8 12.8-5.12 12.8-12.8c0-5.12-5.12-12.8-12.8-12.8zM908.8 458.24c7.68 0 12.8-5.12 12.8-12.8s-5.12-12.8-12.8-12.8v0c-7.68 0-12.8 5.12-12.8 12.8s5.12 12.8 12.8 12.8zM330.24 235.52h-46.080v-209.92h128v46.080h-81.92zM640 235.52h-43.52l-46.080-125.44-43.52 125.44h-89.6v-209.92h46.080v192l69.12-192h38.4l69.12 192v-192h128v46.080h-81.92v40.96h76.8v43.52h-76.8v33.28h81.92v46.080h-122.88z" />
<glyph unicode="&#xe920;" glyph-name="e-serve-admin" data-tags="e-serve-admin" horiz-adv-x="1368" d="M424.081 385.939h219.798c10.343 0 18.101 10.343 18.101 20.687v85.333c0 10.343-7.758 20.687-18.101 20.687h-219.798c-10.343 0-18.101-10.343-18.101-20.687v-85.333c-2.586-12.929 7.758-20.687 18.101-20.687zM442.182 471.273h181.010v-46.545h-181.010v46.545zM116.364 385.939c10.343 0 20.687 7.758 20.687 20.687 0 0 0 0 0 0v85.333c0 10.343-7.758 20.687-20.687 20.687s-20.687-7.758-20.687-20.687v-85.333c0-12.929 7.758-20.687 20.687-20.687zM227.556 385.939c10.343 0 20.687 7.758 20.687 20.687v85.333c0 10.343-7.758 20.687-20.687 20.687s-20.687-10.343-20.687-23.273v-85.333c0-10.343 10.343-18.101 20.687-18.101zM325.818 468.687c10.343 0 20.687 7.758 20.687 20.687v2.586c0 10.343-7.758 20.687-20.687 20.687s-20.687-7.758-20.687-20.687v-2.586c0-12.929 7.758-20.687 20.687-20.687zM325.818 385.939c10.343 0 20.687 7.758 20.687 20.687v2.586c0 10.343-7.758 20.687-20.687 20.687s-20.687-7.758-20.687-20.687v-2.586c0-12.929 7.758-20.687 20.687-20.687zM424.081 766.061h219.798c10.343 0 18.101 10.343 18.101 20.687v82.747c0 10.343-7.758 20.687-18.101 20.687h-219.798c-10.343 0-18.101-10.343-18.101-20.687v-85.333c-2.586-10.343 7.758-18.101 18.101-18.101zM442.182 851.394h181.010v-46.545h-181.010v46.545zM116.364 766.061c10.343 0 20.687 7.758 20.687 20.687 0 0 0 0 0 0v82.747c0 10.343-7.758 20.687-20.687 20.687s-20.687-7.758-20.687-20.687v-85.333c0-10.343 7.758-18.101 20.687-18.101zM227.556 766.061c10.343 0 20.687 7.758 20.687 20.687v82.747c0 10.343-7.758 20.687-20.687 20.687s-20.687-7.758-20.687-20.687v-85.333c0-10.343 10.343-18.101 20.687-18.101zM325.818 848.808c10.343 0 20.687 7.758 20.687 20.687v0c0 10.343-7.758 20.687-20.687 20.687s-20.687-7.758-20.687-20.687v-2.586c0-10.343 7.758-18.101 20.687-18.101zM325.818 766.061c10.343 0 20.687 7.758 20.687 20.687v0c0 10.343-7.758 20.687-20.687 20.687s-20.687-7.758-20.687-20.687v-2.586c0-10.343 7.758-18.101 20.687-18.101zM405.98 0.646h219.798c10.343 0 18.101 10.343 18.101 20.687v85.333c0 10.343-7.758 20.687-18.101 20.687h-219.798c-10.343 0-18.101-10.343-18.101-20.687v-85.333c0-12.929 7.758-20.687 18.101-20.687zM426.667 85.98h181.010v-46.545h-181.010v46.545zM98.263 0.646c10.343 0 20.687 7.758 20.687 20.687 0 0 0 0 0 0v85.333c0 10.343-7.758 20.687-20.687 20.687s-20.687-10.343-20.687-23.273v-85.333c0-10.343 10.343-18.101 20.687-18.101zM212.040 0.646c10.343 0 20.687 7.758 20.687 20.687v85.333c0 10.343-7.758 20.687-20.687 20.687-10.343 0-20.687-7.758-20.687-20.687v-85.333c0-12.929 7.758-20.687 20.687-20.687zM307.717 83.394c10.343 0 20.687 7.758 20.687 20.687v2.586c0 10.343-7.758 20.687-20.687 20.687-10.343 0-20.687-7.758-20.687-20.687v-2.586c0-12.929 10.343-20.687 20.687-20.687zM307.717 0.646c10.343 0 20.687 7.758 20.687 20.687v2.586c0 10.343-7.758 20.687-20.687 20.687-10.343 0-20.687-7.758-20.687-20.687v-2.586c0-12.929 10.343-20.687 20.687-20.687zM1365.333 468.687c-5.172 49.131-23.273 95.677-56.889 131.879v0c-2.586 5.172-7.758 5.172-12.929 7.758-15.515 15.515-33.616 31.030-51.717 41.374-2.586 5.172-5.172 7.758-10.343 10.343-31.030 15.515-67.232 23.273-100.848 23.273-121.535 0-222.384-93.091-232.727-214.626h-67.232v364.606c0 10.343-7.758 20.687-20.687 20.687h-87.919v85.333c0 12.929-7.758 20.687-18.101 20.687h-685.253c-12.929 0-20.687-7.758-20.687-20.687v-214.626c0-10.343 7.758-20.687 20.687-20.687h685.253c10.343 0 20.687 7.758 20.687 20.687v87.919h67.232v-343.919h-69.818v87.919c0 10.343-7.758 20.687-20.687 20.687h-682.667c-10.343 0-20.687-7.758-20.687-20.687v-217.212c0-10.343 7.758-20.687 20.687-20.687h685.253c10.343 0 20.687 7.758 20.687 20.687v87.919h67.232v-343.919h-69.818v87.919c0 10.343-7.758 20.687-20.687 20.687h-682.667c-10.343 0-20.687-7.758-20.687-20.687v-214.626c0-10.343 7.758-20.687 20.687-20.687h685.253c10.343 0 20.687 7.758 20.687 20.687v87.919h87.919c10.343 0 20.687 7.758 20.687 20.687v362.020h67.232c10.343-129.293 124.121-224.97 253.414-212.040 126.707 10.343 222.384 124.121 209.455 253.414zM685.253 745.374h-643.879v173.253h643.879v-173.253zM685.253 360.081h-643.879v173.253h643.879v-173.253zM685.253-25.212h-643.879v173.253h643.879v-173.253zM1132.606 254.061v0c-43.96 0-85.333 15.515-118.949 41.374 20.687 80.162 67.232 131.879 118.949 131.879s98.263-54.303 118.949-131.879c-33.616-28.444-74.99-41.374-118.949-41.374zM1088.646 533.333c0 23.273 20.687 43.96 43.96 43.96s43.96-20.687 43.96-43.96-20.687-43.96-43.96-43.96c-23.273 0-43.96 20.687-43.96 43.96zM1285.172 326.465c-23.273 67.232-62.061 116.364-111.192 131.879 41.374 23.273 54.303 74.99 31.030 113.778-23.273 41.374-74.99 54.303-113.778 31.030-41.374-23.273-54.303-74.99-31.030-113.778 7.758-12.929 18.101-23.273 31.030-31.030-49.131-18.101-87.919-64.646-111.192-131.879-67.232 82.747-51.717 206.869 31.030 271.515 59.475 46.545 137.051 54.303 204.283 23.273 2.586-2.586 7.758-2.586 12.929-2.586 18.101-10.343 33.616-20.687 46.545-36.202 0-2.586 2.586-7.758 5.172-10.343 62.061-67.232 62.061-173.253 5.172-245.657z" />
<glyph unicode="&#xe921;" glyph-name="e-testdata-center" data-tags="e-testdata-center" horiz-adv-x="1591" d="M1517.621 844.472h-614.4v31.508c2.626 44.636-31.508 81.395-76.144 84.021h-750.933c-44.636-2.626-78.769-39.385-76.144-84.021v-614.4c-2.626-44.636 31.508-81.395 76.144-84.021h238.933v-31.508h-60.39c-34.133 0-60.39-26.256-60.39-60.39v-15.754c0-7.877 7.877-15.754 15.754-15.754 0 0 0 0 0 0h480.492c7.877 0 15.754 7.877 15.754 15.754v15.754c0 34.133-26.256 60.39-60.39 60.39h-60.39v31.508h139.159v-36.759c-2.626-42.010 28.882-81.395 70.892-84.021h231.056v-31.508h-55.138c-31.508 0-57.764-28.882-57.764-60.39 0 0 0 0 0 0v-15.754c0-7.877 5.251-15.754 13.128-15.754h462.113c7.877 0 15.754 7.877 13.128 15.754v15.754c0 31.508-26.256 60.39-57.764 60.39 0 0 0 0 0 0h-57.764v31.508h231.056c42.010 2.626 76.144 42.010 73.518 84.021v619.651c2.626 42.010-28.882 78.769-73.518 84.021zM645.908 117.169c15.754 0 28.882-13.128 28.882-28.882h-448.985c0 15.754 13.128 28.882 28.882 28.882h391.221zM346.585 148.677v31.508h210.051v-31.508h-210.051zM76.144 209.067c-26.256 2.626-47.262 26.256-44.636 52.513v36.759h695.795v-89.272h-651.159zM724.677 760.451v-430.605h-695.795v546.133c-2.626 26.256 18.379 49.887 44.636 52.513h753.559c26.256-2.626 47.262-26.256 44.636-52.513v-31.508h-76.144c-42.010-5.251-73.518-42.010-70.892-84.021zM1344.328-3.61c15.754 0 28.882-13.128 28.882-31.508 0 0 0 0 0 0h-430.605c0 15.754 13.128 28.882 28.882 31.508 0 0 0 0 0 0h372.841zM1058.133 27.897v31.508h202.174v-31.508h-202.174zM1562.256 140.8c2.626-26.256-15.754-49.887-42.010-52.513h-722.051c-26.256 2.626-44.636 26.256-42.010 52.513v36.759h806.072v-36.759zM1562.256 209.067h-808.697v551.385c-2.626 26.256 15.754 49.887 42.010 52.513h719.426c26.256-2.626 44.636-26.256 42.010-52.513v-551.385zM1265.559 642.297h-160.164v36.759c0 2.626-2.626 7.877-5.251 10.503s-5.251 2.626-10.503 2.626l-196.923-36.759c-5.251 0-10.503-5.251-10.503-13.128v-270.441c0-5.251 5.251-10.503 10.503-13.128l196.923-36.759c0 0 2.626 0 2.626 0 7.877 0 13.128 5.251 13.128 13.128v36.759h160.164c7.877 0 13.128 5.251 13.128 13.128 0 0 0 0 0 0v244.185c-2.626 7.877-7.877 13.128-13.128 13.128zM908.472 382.359v249.436l170.667 31.508v-34.133c0 0 0 0 0 0s0 0 0 0v-244.185c0 0 0 0 0 0s0 0 0 0v-34.133l-170.667 31.508zM1252.431 398.113h-147.036v23.631h36.759c7.877 0 13.128 5.251 13.128 13.128s-5.251 13.128-13.128 13.128h-36.759v23.631h36.759c7.877 0 13.128 5.251 13.128 13.128s-5.251 13.128-13.128 13.128h-36.759v23.631h36.759c7.877 0 13.128 5.251 13.128 13.128s-5.251 13.128-13.128 13.128h-36.759v23.631h36.759c7.877 0 13.128 5.251 13.128 13.128s-5.251 13.128-13.128 13.128h-36.759v21.005h147.036v-220.554zM1192.041 568.779h23.631c7.877 0 13.128 5.251 13.128 13.128s-5.251 13.128-13.128 13.128h-23.631c-7.877 0-13.128-5.251-13.128-13.128s5.251-13.128 13.128-13.128zM1192.041 518.892h23.631c7.877 0 13.128 5.251 13.128 13.128s-5.251 13.128-13.128 13.128h-23.631c-7.877 0-13.128-5.251-13.128-13.128 0-5.251 5.251-13.128 13.128-13.128zM1192.041 471.631h23.631c7.877 0 13.128 5.251 13.128 13.128s-5.251 13.128-13.128 13.128h-23.631c-7.877 0-13.128-5.251-13.128-13.128s5.251-13.128 13.128-13.128zM1192.041 421.744h23.631c7.877 0 13.128 5.251 13.128 13.128s-5.251 13.128-13.128 13.128h-23.631c-7.877 0-13.128-5.251-13.128-13.128s5.251-13.128 13.128-13.128zM1050.256 579.282c0 0 0 0 0 0-5.251 5.251-13.128 2.626-18.379-2.626 0 0 0 0 0 0l-34.133-47.262-31.508 36.759c-5.251 5.251-13.128 5.251-18.379 0s-5.251-10.503 0-15.754l34.133-39.385-34.133-44.636c-2.626-5.251-2.626-13.128 2.626-18.379s13.128-2.626 18.379 2.626l31.508 39.385 36.759-42.010c5.251-5.251 13.128-5.251 18.379 0s5.251 10.503 0 15.754l-39.385 44.636 39.385 49.887c2.626 7.877 2.626 15.754-5.251 21.005zM567.138 471.631h-10.503v223.179c0 13.128-10.503 26.256-26.256 26.256h-31.508c-13.128 0-26.256-10.503-26.256-26.256v-223.179h-26.256v118.154c0 13.128-10.503 26.256-26.256 26.256h-34.133c-13.128 0-26.256-10.503-26.256-26.256v-118.154h-26.256v57.764c0 13.128-10.503 26.256-26.256 26.256h-34.133c-13.128 0-26.256-10.503-26.256-26.256v-57.764h-13.128c-7.877 0-13.128-5.251-13.128-13.128s5.251-13.128 13.128-13.128h336.082c7.877 0 13.128 5.251 13.128 13.128s-7.877 13.128-15.754 13.128zM530.379 692.185v-220.554h-31.508v220.554h31.508zM417.477 587.159v-118.154h-31.508v118.154h31.508zM301.949 526.769v-57.764h-31.508v57.764h31.508zM294.072 610.79v0c2.626 0 7.877 2.626 10.503 5.251l120.779 120.779 21.005-23.631c5.251-5.251 13.128-5.251 18.379 0l65.641 65.641v-7.877c0-7.877 5.251-13.128 13.128-13.128s13.128 5.251 13.128 13.128v42.010c0 2.626 0 7.877-2.626 10.503s-5.251 5.251-10.503 5.251h-44.636c-7.877 0-13.128-5.251-13.128-13.128s5.251-13.128 13.128-13.128h10.503l-55.138-55.138-21.005 21.005c-2.626 2.626-5.251 5.251-10.503 5.251v0c-2.626 0-7.877-2.626-10.503-5.251l-128.656-128.656c-2.626-2.626-5.251-5.251-5.251-10.503 0-2.626 2.626-7.877 5.251-10.503 5.251-5.251 7.877-7.877 10.503-7.877zM270.441 587.159c7.877 0 13.128 5.251 13.128 13.128s-5.251 13.128-13.128 13.128-13.128-5.251-13.128-13.128 5.251-13.128 13.128-13.128z" />
<glyph unicode="&#xe922;" glyph-name="e-warning" data-tags="e-warning" horiz-adv-x="1120" d="M560.083 240.405c-31.799 0-57.577-25.778-57.577-57.577s25.778-57.577 57.577-57.577v0c31.799 0 57.577 25.778 57.577 57.577s-25.778 57.577-57.577 57.577v0zM1092.89 36.423c17.122 28.567 27.247 63.027 27.247 99.853 0 36.514-9.955 70.703-27.298 100.001l0.499-0.912-360.582 624.493c-34.888 60.222-99.028 100.082-172.478 100.082s-137.59-39.861-171.968-99.13l-0.51-0.953-361.086-624.941c-16.689-28.533-26.543-62.823-26.543-99.415 0-110.070 89.165-199.315 199.204-199.445h720.279c0.234-0.001 0.511-0.002 0.788-0.002 73.51 0 137.679 39.994 171.935 99.409l0.51 0.959zM1014.479 81.566c-19.079-33.12-54.285-55.058-94.614-55.058-0.211 0-0.422 0.001-0.632 0.002h-720.011c-0.256-0.002-0.558-0.003-0.86-0.003-39.603 0-74.196 21.453-92.791 53.373l-0.275 0.511c-9.337 15.731-14.855 34.679-14.855 54.916s5.518 39.185 15.132 55.421l-0.277-0.505 360.806 624.941c19.033 32.906 54.062 54.692 94.178 54.692s75.145-21.785 93.9-54.171l0.278-0.521 360.806-625.165c9.022-15.4 14.35-33.912 14.35-53.669 0-20.225-5.583-39.146-15.293-55.306l0.271 0.486zM545.745 644.561c-25.955-8.034-44.482-31.82-44.482-59.934 0-1.023 0.025-2.040 0.073-3.050l-0.005 0.143c1.4-18.203 2.52-36.629 3.921-54.776 3.921-69.338 7.841-137.22 11.762-206.559 0.892-22.587 19.419-40.56 42.143-40.56 0.326 0 0.651 0.004 0.975 0.011l-0.048-0.001c0.005 0 0.010 0 0.016 0 23.374 0 42.398 18.619 43.053 41.834l0.001 0.060c0 14.282 0 27.388 1.4 41.894 2.52 44.415 5.321 88.885 7.841 133.3 1.4 28.788 3.921 57.577 5.321 86.365 0.014 0.519 0.021 1.13 0.021 1.743 0 9.754-1.963 19.050-5.517 27.514l0.175-0.469c-9.222 20.321-29.335 34.199-52.69 34.199-4.957 0-9.769-0.625-14.36-1.801l0.4 0.087z" />
<glyph unicode="&#xe923;" glyph-name="e-apple" data-tags="e-apple" d="M937.715 207.899c-2.749-7.761-5.389-16.168-8.515-24.36-27.733-71.52-65.188-133.138-111.547-186.857l0.685 0.812c-9.332-10.918-19.295-20.71-30.044-29.585l-0.407-0.326c-19.92-17.734-45.971-28.967-74.616-30.173l-0.244-0.008c-1.394-0.046-3.032-0.073-4.677-0.073-20.692 0-40.406 4.187-58.342 11.76l0.986-0.37c-14.39 5.875-28.564 12.45-43.116 17.785-19.691 7.41-42.45 11.699-66.21 11.699-27.079 0-52.857-5.571-76.25-15.628l1.256 0.48c-16.815-6.683-33.415-14.013-50.553-19.779-12.179-4.525-26.248-7.143-40.929-7.143-7.247 0-14.344 0.638-21.24 1.861l0.729-0.107c-18.875 4.058-35.437 12.067-49.457 23.151l0.251-0.191c-18.259 14.141-34.193 29.887-48.069 47.344l-0.436 0.569c-65.7 78.791-113.605 174.721-136.175 280.051l-0.772 4.298c-7.594 33.208-11.947 71.343-11.947 110.494 0 9.703 0.267 19.343 0.795 28.914l-0.059-1.33c1.943 58.183 18.781 112.050 46.794 158.407l-0.822-1.465c34.91 58.165 91.393 100.344 158.122 115.71l1.676 0.325c13.848 3.363 29.746 5.292 46.095 5.292 27.479 0 53.685-5.449 77.597-15.326l-1.351 0.494q31.475-12.072 63.111-23.875c8.616-3.493 18.609-5.52 29.076-5.52s20.461 2.027 29.61 5.71l-0.533-0.19q32.337 12.288 64.674 24.414c19.84 8.075 42.862 13.952 66.866 16.552l1.149 0.101c6.058 0.51 13.111 0.801 20.233 0.801 29.551 0 57.932-5.010 84.339-14.228l-1.795 0.545c47.498-15.662 86.855-45.244 114.328-83.868l0.468-0.693 2.21-3.234c-66.060-40.325-109.488-112.018-109.488-193.854 0-5.635 0.206-11.221 0.61-16.752l-0.043 0.74c4.814-86.991 58.846-160.27 134.528-192.82l1.448-0.554zM526.821 722.863c1.010-0.023 2.201-0.037 3.394-0.037 21.277 0 41.562 4.252 60.050 11.952l-1.034-0.382c80.996 35.433 136.731 114.533 137.539 206.744l0.001 0.104c0 5.928-0.539 11.857-0.755 18.755-9.378-1.401-17.947-2.048-26.139-4.15-65.85-14.799-119.895-56.436-151.010-112.547l-0.595-1.17c-17.437-28.708-27.758-63.412-27.758-100.527 0-4.585 0.157-9.132 0.467-13.638l-0.034 0.609c0.216-4.312 1.779-5.389 5.875-5.713z" />
<glyph unicode="&#xe924;" glyph-name="e-calender" data-tags="e-calender" horiz-adv-x="925" d="M894.458 867.47h-209.735v61.687c0 18.506-12.337 30.843-30.843 30.843s-30.843-12.337-30.843-30.843v-61.687h-320.771v61.687c0 18.506-12.337 30.843-30.843 30.843s-30.843-12.337-30.843-30.843v-61.687h-209.735c-18.506 0-30.843-12.337-30.843-30.843v-863.614c0-18.506 12.337-30.843 30.843-30.843h863.614c18.506 0 30.843 12.337 30.843 30.843v863.614c0 18.506-12.337 30.843-30.843 30.843zM240.578 805.783v-61.687c0-18.506 12.337-30.843 30.843-30.843s30.843 12.337 30.843 30.843v61.687h320.771v-61.687c0-18.506 12.337-30.843 30.843-30.843s30.843 12.337 30.843 30.843v61.687h178.892v-228.241h-801.928v228.241h178.892zM61.687-2.313v518.169h801.928v-512h-801.928z" />
<glyph unicode="&#xe925;" glyph-name="e-checkright" data-tags="e-checkright" d="M738.307 610.432c7.261-7.242 11.753-17.257 11.753-28.321s-4.492-21.079-11.752-28.32l-268.31-268.266c-7.242-7.261-17.257-11.753-28.321-11.753s-21.079 4.492-28.32 11.752l-127.707 127.75c-7.248 7.248-11.731 17.261-11.731 28.321 0 22.12 17.932 40.052 40.052 40.052 11.060 0 21.073-4.483 28.321-11.731l99.472-99.472 240.075 240.075c7.242 7.261 17.257 11.753 28.321 11.753s21.079-4.492 28.32-11.752l0.001-0.001zM1023.913 448c0-282.77-229.23-512-512-512s-512 229.23-512 512c0 282.77 229.23 512 512 512 0.031 0 0.062 0 0.092 0h-0.005c0.065 0 0.141 0 0.218 0 282.601 0 511.695-229.094 511.695-511.695 0-0.107 0-0.215 0-0.322v0.017zM943.917 448c0 238.589-193.415 432.004-432.004 432.004s-432.004-193.415-432.004-432.004c0-238.589 193.415-432.004 432.004-432.004v0c0.103 0 0.226 0 0.349 0 238.445 0 431.743 193.298 431.743 431.743 0 0.092 0 0.184 0 0.276v-0.014z" />
<glyph unicode="&#xe926;" d="M986.489 639.973h-474.274c-0.029 0-0.062 0-0.096 0-106.024 0-191.973-85.949-191.973-191.973 0-34.404 9.050-66.694 24.9-94.62l-0.497 0.951-237.137 407.013c94.489 121.289 240.564 198.56 404.686 198.56 213.488 0 396.438-130.745 473.148-316.532l1.243-3.399z" />
<glyph unicode="&#xe927;" d="M1024 448c-0.245-282.671-229.329-511.755-511.976-512h-0.024c-0.514-0.002-1.121-0.003-1.729-0.003-21.953 0-43.544 1.549-64.671 4.543l2.427-0.282 230.4 411.702c16.088 27.522 25.588 60.595 25.588 95.887 0 70.758-38.184 132.597-95.071 166.035l-0.903 0.491c-27.329 16.094-60.206 25.6-95.303 25.6-0.089 0-0.177 0-0.266 0h474.288c23.558-56.287 37.244-121.694 37.244-190.297 0-0.589-0.001-1.179-0.003-1.768v0.091z" />
<glyph unicode="&#xe928;" d="M678.373 351.96l-230.4-411.702h-0.377c-253.665 32.945-447.581 247.65-447.581 507.646 0 118.517 40.294 227.622 107.929 314.364l-0.856-1.14 238.43-409.169c33.777-57.929 95.614-96.241 166.4-96.241s132.623 38.311 165.909 95.33l0.491 0.911z" />
<glyph unicode="&#xe929;" d="M678.427 352.013c-33.777-57.929-95.614-96.241-166.4-96.241s-132.623 38.311-165.909 95.33l-0.491 0.911-1.293 2.156c-15.353 26.975-24.403 59.265-24.403 93.669 0 106.024 85.949 191.973 191.973 191.973 0.034 0 0.068 0 0.102 0h0.426c0.075 0 0.164 0 0.252 0 35.097 0 67.974-9.507 96.196-26.085l-0.894 0.485c57.76-33.936 95.922-95.76 95.922-166.496 0-35.217-9.459-68.224-25.975-96.621l0.493 0.919z" />
<glyph unicode="&#xe92a;" d="M678.427 352.013c-33.777-57.929-95.614-96.241-166.4-96.241s-132.623 38.311-165.909 95.33l-0.491 0.911-1.293 2.156c-15.353 26.975-24.403 59.265-24.403 93.669 0 106.024 85.949 191.973 191.973 191.973 0.034 0 0.068 0 0.102 0h0.426c0.075 0 0.164 0 0.252 0 35.097 0 67.974-9.507 96.196-26.085l-0.894 0.485c57.76-33.936 95.922-95.76 95.922-166.496 0-35.217-9.459-68.224-25.975-96.621l0.493 0.919z" />
<glyph unicode="&#xe92b;" d="M511.299 234.685c-0.003 0-0.006 0-0.009 0-39.011 0-75.558 10.546-106.947 28.944l0.999-0.541c-64.307 37.587-106.823 106.291-106.823 184.925 0 117.9 95.577 213.477 213.477 213.477s213.477-95.577 213.477-213.477c0-39.272-10.605-76.067-29.106-107.679l0.546 1.009c-37.856-64.235-106.684-106.658-185.42-106.658-0.068 0-0.136 0-0.204 0h0.011zM512.431 618.685c-0.123 0-0.27 0.001-0.416 0.001-94.296 0-170.739-76.442-170.739-170.739s76.442-170.739 170.739-170.739c62.908 0 117.869 34.021 147.489 84.669l0.437 0.808c14.367 24.475 22.852 53.904 22.852 85.316 0 94.134-76.204 170.47-170.288 170.684h-0.021z" />
<glyph unicode="&#xe92c;" d="M512 853.333c-223.859 0-405.333-181.474-405.333-405.333s181.474-405.333 405.333-405.333v0c223.859 0 405.333 181.474 405.333 405.333s-181.474 405.333-405.333 405.333v0z" />
<glyph unicode="&#xe92d;" horiz-adv-x="1037" d="M491.008 879.168l545.536 80.832v-479.68h-545.536z" />
<glyph unicode="&#xe92e;" horiz-adv-x="1037" d="M0 809.152l418.24 61.056v-395.2h-418.24z" />
<glyph unicode="&#xe92f;" horiz-adv-x="1037" d="M491.008 16.832l545.536-80.832v467.2h-545.536z" />
<glyph unicode="&#xe930;" horiz-adv-x="1037" d="M0 86.656l418.24-61.056v377.28h-418.24z" />
<glyph unicode="&#xe931;" d="M725.333 516.267c0 12.8 0 61.867-32 100.267-2.133 2.133-4.267 6.4-4.267 8.533-2.133 2.133-2.133 4.267-4.267 8.533l-8.533 12.8c-4.267 6.4-6.4 10.667-6.4 10.667-8.533 12.8-10.667 29.867-2.133 44.8 2.133 4.267 6.4 8.533 8.533 12.8-2.133 2.133-4.267 4.267-6.4 4.267 0 0 0 0-2.133 0-6.4 4.267-12.8 8.533-17.067 12.8l-14.933 10.667c-10.667 6.4-17.067 8.533-17.067 10.667-14.933 8.533-23.467 23.467-21.333 40.533s12.8 32 29.867 36.267c2.133 0 6.4 2.133 10.667 2.133 0 0 0 0-2.133 2.133-38.4 12.8-81.067 19.2-123.733 19.2-157.867 0-296.533-91.733-362.667-224 0-4.267 0-6.4 0-10.667 0-153.6 134.4-277.333 298.667-277.333 125.867 0 232.533 72.533 277.333 174.933z" />
<glyph unicode="&#xe932;" d="M640 789.333c0 0 6.4 2.133 19.2 2.133 6.4 0 12.8 0 21.333 0s17.067-2.133 27.733-4.267c10.667-2.133 21.333-6.4 32-10.667s23.467-10.667 34.133-19.2c10.667-6.4 21.333-17.067 32-25.6s19.2-21.333 27.733-32c6.4-12.8 14.933-23.467 21.333-36.267s10.667-25.6 14.933-38.4c4.267-12.8 6.4-25.6 8.533-36.267 2.133-12.8 2.133-23.467 2.133-32 0-4.267 0-10.667 0-14.933s0-8.533-2.133-12.8c0-8.533-2.133-14.933-2.133-21.333 0-10.667-2.133-17.067-2.133-17.067s-4.267 6.4-8.533 17.067c-2.133 4.267-6.4 10.667-8.533 19.2-2.133 6.4-6.4 14.933-10.667 23.467s-8.533 17.067-12.8 27.733c-4.267 8.533-10.667 19.2-14.933 29.867s-10.667 19.2-17.067 29.867c-6.4 10.667-12.8 19.2-19.2 27.733s-12.8 19.2-21.333 25.6c-8.533 8.533-14.933 17.067-23.467 23.467-6.4 8.533-14.933 14.933-23.467 21.333s-14.933 12.8-23.467 17.067c-6.4 6.4-14.933 10.667-21.333 14.933s-12.8 8.533-17.067 10.667c-6.4 6.4-12.8 10.667-12.8 10.667z" />
<glyph unicode="&#xe933;" d="M919.467 584.533c-6.4 46.933-25.6 89.6-46.933 119.467-10.667 14.933-21.333 25.6-27.733 32-8.533 6.4-12.8 10.667-12.8 10.667s0-6.4 2.133-17.067c2.133-10.667 2.133-23.467 4.267-40.533 2.133-8.533 2.133-17.067 4.267-25.6-8.533 12.8-19.2 25.6-29.867 34.133-10.667 10.667-23.467 17.067-29.867 21.333-10.667 4.267-14.933 6.4-14.933 6.4s2.133-4.267 4.267-12.8c2.133-8.533 6.4-19.2 10.667-34.133s10.667-34.133 17.067-53.333c-12.8 14.933-25.6 27.733-38.4 36.267-14.933 8.533-27.733 14.933-38.4 17.067-12.8 4.267-19.2 4.267-19.2 4.267s4.267-4.267 8.533-12.8c2.133-4.267 6.4-8.533 8.533-14.933 4.267-6.4 6.4-12.8 10.667-19.2 6.4-12.8 14.933-27.733 21.333-44.8 4.267-8.533 6.4-17.067 10.667-25.6 2.133-8.533 8.533-17.067 10.667-27.733 4.267-8.533 6.4-17.067 10.667-27.733 2.133-8.533 6.4-17.067 8.533-27.733 2.133-8.533 6.4-17.067 8.533-25.6s4.267-17.067 8.533-23.467 10.667-27.733 14.933-36.267c4.267-8.533 6.4-12.8 6.4-12.8s2.133 4.267 6.4 14.933c2.133 4.267 4.267 10.667 4.267 17.067 2.133 6.4 4.267 14.933 4.267 23.467 0 6.4 2.133 12.8 2.133 19.2 2.133-6.4 4.267-10.667 4.267-10.667s2.133 4.267 6.4 12.8c2.133 4.267 4.267 8.533 6.4 14.933 0 0 0 2.133 0 2.133 0-4.267 0-10.667 2.133-14.933 0-8.533 2.133-14.933 2.133-21.333s0-12.8 0-19.2c0-10.667 2.133-17.067 2.133-17.067s4.267 4.267 10.667 12.8c2.133 4.267 6.4 8.533 10.667 14.933s6.4 12.8 10.667 21.333c4.267 8.533 6.4 17.067 8.533 27.733s4.267 21.333 6.4 32c2.133 10.667 2.133 23.467 2.133 34.133 2.133 12.8 0 25.6-2.133 36.267z" />
<glyph unicode="&#xe934;" d="M940.8 537.6c0 10.667-2.133 17.067-2.133 17.067s-4.267-6.4-10.667-14.933c-6.4-10.667-12.8-23.467-21.333-40.533-6.4-14.933-14.933-32-23.467-49.067 0 17.067 0 32-2.133 46.933-2.133 12.8-4.267 23.467-6.4 34.133-4.267 10.667-6.4 21.333-10.667 29.867-6.4 19.2-14.933 32-21.333 42.667s-10.667 14.933-10.667 14.933-2.133-25.6-2.133-64c0-19.2-2.133-38.4-4.267-61.867 0-10.667-2.133-21.333-2.133-34.133 0-10.667-2.133-23.467-4.267-34.133 0-2.133 0-6.4 0-8.533-2.133 19.2-8.533 38.4-17.067 51.2-6.4 14.933-14.933 25.6-21.333 32-8.533 10.667-12.8 12.8-12.8 12.8s0-6.4 0-14.933c0-8.533 0-21.333-2.133-36.267-2.133-27.733-6.4-64-10.667-98.133-2.133-8.533-4.267-17.067-4.267-25.6-2.133-8.533-4.267-17.067-4.267-25.6-2.133-8.533-4.267-17.067-6.4-23.467-2.133-8.533-4.267-14.933-4.267-21.333-2.133-6.4-2.133-14.933-4.267-19.2-2.133-6.4-2.133-10.667-4.267-17.067-2.133-10.667-2.133-17.067-2.133-17.067s4.267 2.133 12.8 8.533c8.533 6.4 19.2 12.8 29.867 25.6 4.267 6.4 10.667 12.8 17.067 21.333 4.267 8.533 10.667 14.933 14.933 23.467 0-6.4-2.133-12.8-2.133-19.2-2.133-6.4-2.133-14.933-4.267-19.2-4.267-12.8-4.267-19.2-4.267-19.2 2.133 2.133 8.533 0 14.933-2.133 0-2.133-2.133-4.267-2.133-4.267-2.133-6.4-4.267-12.8-6.4-19.2-4.267-10.667-6.4-17.067-6.4-17.067s6.4 2.133 14.933 8.533c4.267 4.267 10.667 6.4 17.067 12.8 6.4 4.267 12.8 10.667 19.2 19.2 6.4 6.4 12.8 14.933 21.333 23.467 6.4 8.533 12.8 19.2 19.2 29.867 12.8 21.333 23.467 44.8 32 68.267s17.067 49.067 21.333 72.533c4.267 23.467 6.4 44.8 8.533 64 0 19.2 0 34.133-2.133 46.933z" />
<glyph unicode="&#xe935;" d="M883.2 311.467c-8.533-4.267-17.067-12.8-29.867-21.333-17.067-12.8-36.267-29.867-55.467-49.067 2.133 6.4 6.4 12.8 8.533 19.2 6.4 19.2 8.533 36.267 10.667 51.2 0 14.933 0 27.733-2.133 36.267-2.133 10.667-4.267 14.933-4.267 14.933s-4.267-4.267-8.533-10.667c-4.267-6.4-12.8-17.067-21.333-27.733s-17.067-25.6-25.6-38.4c-2.133-2.133-2.133-4.267-4.267-6.4 4.267 12.8 4.267 27.733 4.267 40.533 0 17.067-4.267 34.133-8.533 46.933s-10.667 23.467-14.933 29.867c-2.133 4.267-6.4 8.533-6.4 8.533s-2.133-4.267-4.267-12.8c-2.133-6.4-6.4-17.067-10.667-29.867-4.267-10.667-6.4-23.467-10.667-38.4-2.133-6.4-4.267-12.8-6.4-21.333-2.133-6.4-4.267-12.8-6.4-17.067-40.533-40.533-89.6-51.2-136.533-53.333-25.6 0-49.067 4.267-70.4 10.667 0 0 0 0 0 0s0 0 0 0c-32 10.667-61.867 29.867-89.6 55.467 40.533-4.267 78.933 4.267 110.933 19.2l53.333 34.133c6.4 2.133 12.8 2.133 19.2 0 12.8 2.133 17.067 8.533 12.8 21.333-6.4 8.533-17.067 17.067-27.733 23.467-27.733 14.933-55.467 12.8-85.333-6.4-27.733-14.933-53.333-12.8-81.067 2.133-66.133 34.133-40.533 121.6 29.867 76.8 4.267 21.333-2.133 44.8-14.933 68.267 0 0 0 0 0 0-61.867 113.067 8.533 204.8 32 219.733-42.667-4.267-81.067-23.467-115.2-55.467-219.733 25.6-238.933-187.733-238.933-189.867l25.6 23.467c-8.533-23.467-14.933-46.933-17.067-72.533-8.533-83.2 14.933-164.267 70.4-245.333 85.333-108.8 219.733-174.933 347.733-174.933 145.067 0 238.933 53.333 300.8 121.6 4.267 4.267 8.533 8.533 12.8 12.8 12.8 14.933 25.6 29.867 36.267 46.933 10.667 14.933 17.067 32 23.467 46.933 4.267 14.933 8.533 27.733 10.667 36.267 0 6.4 0 12.8 0 12.8s-4.267-2.133-12.8-8.533z" />
<glyph unicode="&#xe936;" d="M256 362.667c-4.267 149.333 91.733 136.533 140.8 119.467-34.133 6.4-49.067-25.6-34.133-55.467-6.4 0-72.533 6.4-106.667-64zM390.4 300.8c40.533-4.267 78.933 4.267 110.933 19.2l53.333 34.133c4.267 2.133 10.667 2.133 14.933 0v0c-61.867 36.267-128-40.533-273.067-17.067 36.267-27.733 93.867-36.267 93.867-36.267zM386.133 650.667c-4.267-32 2.133-70.4 23.467-110.933 0 0 0 0 0 0s0 0 0 0c29.867 17.067 59.733 36.267 59.733 36.267s42.667 42.667 0 42.667c-40.533 0-68.267 17.067-83.2 32zM219.733 695.467c-19.2 17.067-49.067 51.2-49.067 93.867 0 0-51.2-83.2-32-149.333 19.2 23.467 46.933 42.667 81.067 55.467z" />
<glyph unicode="&#xe937;" d="M409.6 539.733c0 0 0 0 0 0s0 0 0 0c29.867 17.067 59.733 36.267 59.733 36.267s4.267 4.267 8.533 8.533l-8.533 12.8h-81.067c4.267-19.2 10.667-38.4 21.333-57.6z" />
<glyph unicode="&#xe938;" d="M469.333 618.667c-6.4 0-12.8 0-19.2 2.133l-2.133-2.133c0 0 17.067-27.733 21.333-42.667 0 0 42.667 42.667 0 42.667z" />
<glyph unicode="&#xe939;" glyph-name="e-wall-clock1" data-tags="e-wall-clock" d="M514.179 960c0 0-4.357 0 0 0-283.234 0-514.179-230.945-514.179-514.179s230.945-514.179 514.179-514.179c283.234 0 514.179 230.945 514.179 514.179 0 0 0 0 0 0-4.357 283.234-235.302 514.179-514.179 514.179zM945.566 445.821c0-239.66-191.728-431.387-431.387-431.387s-431.387 191.728-431.387 431.387c0 239.66 191.728 431.387 431.387 431.387 235.302 4.357 431.387-191.728 431.387-431.387v0c0 0 0 0 0 0zM762.553 450.179h-230.945v270.162c0 17.43-13.072 34.86-34.86 34.86s-34.86-13.072-34.86-34.86v-305.021c0-17.43 13.072-34.86 34.86-34.86 4.357 0 8.715 0 13.072 4.357 4.357 0 8.715-4.357 13.072-4.357h239.66c17.43 0 34.86 13.072 34.86 34.86s-17.43 34.86-34.86 34.86z" />
<glyph unicode="&#xe93a;" glyph-name="e-text-expand" data-tags="e-text-expand" d="M30.797 498.045h962.406c15.398 0 30.797 15.398 30.797 30.797s-15.398 30.797-30.797 30.797h-469.654v284.872l76.992-76.992c15.398-15.398 30.797-15.398 46.195 0s15.398 30.797 0 46.195l-130.887 138.586c-7.699 0-15.398 7.699-23.098 7.699 0 0 0 0 0 0-7.699 0-15.398 0-23.098-7.699l-130.887-130.887c-7.699-7.699-15.398-15.398-15.398-30.797 0-7.699 0-15.398 7.699-23.098 15.398-15.398 30.797-15.398 46.195 0l76.992 76.992v-277.173h-423.459c-15.398 0-30.797-15.398-30.797-30.797 0-7.699 0-15.398 7.699-23.098s15.398-15.398 23.098-15.398zM993.203 390.256h-962.406c-7.699 0-15.398-7.699-23.098-7.699s-7.699-15.398-7.699-23.098c0-15.398 15.398-30.797 30.797-30.797h423.459v-277.173l-69.293 69.293c-7.699 15.398-30.797 15.398-46.195 7.699-7.699-7.699-7.699-15.398-15.398-23.098s0-15.398 7.699-23.098c0 0 0 0 7.699-7.699l130.887-130.887c7.699-7.699 15.398-7.699 23.098-7.699s15.398 0 23.098 7.699l130.887 130.887c7.699 7.699 7.699 15.398 7.699 23.098s0 15.398-7.699 23.098c-15.398 15.398-30.797 15.398-46.195 0l-76.992-76.992v284.872h469.654c7.699 0 15.398 7.699 23.098 7.699 7.699 7.699 7.699 15.398 7.699 23.098 0 15.398-15.398 30.797-30.797 30.797z" />
<glyph unicode="&#xe93b;" horiz-adv-x="2633" d="M2604.139 447.976c0-266.38-216.715-483.095-483.095-483.095h-1609.069c-266.38 0-483.095 216.715-483.095 483.095s216.715 483.095 483.095 483.095h1609.069c266.38 0 483.095-216.715 483.095-483.095z" />
<glyph unicode="&#xe93c;" horiz-adv-x="2633" d="M57.762 447.976c0-250.455 203.759-454.214 454.214-454.214h1609.069c250.455 0 454.214 203.759 454.214 454.214s-203.759 454.214-454.214 454.214h-1609.069c-250.455 0-454.214-203.759-454.214-454.214zM0 447.976c0 282.756 229.219 511.976 511.976 511.976h1609.069c282.756 0 511.976-229.219 511.976-511.976s-229.219-511.976-511.976-511.976h-1609.069c-282.756 0-511.976 229.219-511.976 511.976z" />
<glyph unicode="&#xe93d;" horiz-adv-x="2633" d="M758.296 344.953c39.238 0 71.047-31.809 71.047-71.047s-31.809-71.047-71.047-71.047c-39.238 0-71.047 31.809-71.047 71.047s31.809 71.047 71.047 71.047z" />
<glyph unicode="&#xe93e;" horiz-adv-x="2633" d="M1302.874 344.953c39.238 0 71.047-31.809 71.047-71.047s-31.809-71.047-71.047-71.047c-39.238 0-71.047 31.809-71.047 71.047s31.809 71.047 71.047 71.047z" />
<glyph unicode="&#xe93f;" horiz-adv-x="2633" d="M1847.567 344.953c39.238 0 71.047-31.809 71.047-71.047s-31.809-71.047-71.047-71.047c-39.238 0-71.047 31.809-71.047 71.047s31.809 71.047 71.047 71.047z" />
<glyph unicode="&#xe940;" horiz-adv-x="2633" d="M758.296 629.141c39.238 0 71.047-31.809 71.047-71.047s-31.809-71.047-71.047-71.047c-39.238 0-71.047 31.809-71.047 71.047s31.809 71.047 71.047 71.047z" />
<glyph unicode="&#xe941;" horiz-adv-x="2633" d="M1302.874 629.141c39.238 0 71.047-31.809 71.047-71.047s-31.809-71.047-71.047-71.047c-39.238 0-71.047 31.809-71.047 71.047s31.809 71.047 71.047 71.047z" />
<glyph unicode="&#xe942;" horiz-adv-x="2633" d="M1847.567 629.141c39.238 0 71.047-31.809 71.047-71.047s-31.809-71.047-71.047-71.047c-39.238 0-71.047 31.809-71.047 71.047s31.809 71.047 71.047 71.047z" />
<glyph unicode="&#xf00c;" glyph-name="check" data-tags="check" d="M954.857 627.428c0-14.286-5.714-28.571-16-38.857l-491.429-491.429c-10.286-10.286-24.571-16-38.857-16s-28.571 5.714-38.857 16l-284.571 284.571c-10.286 10.286-16 24.571-16 38.857s5.714 28.571 16 38.857l77.714 77.714c10.286 10.286 24.571 16 38.857 16s28.571-5.714 38.857-16l168-168.571 374.857 375.429c10.286 10.286 24.571 16 38.857 16s28.571-5.714 38.857-16l77.714-77.714c10.286-10.286 16-24.571 16-38.857z" />
<glyph unicode="&#xf00d;" glyph-name="close, remove, times" data-tags="close, remove, times" horiz-adv-x="805" d="M741.714 195.428c0-14.286-5.714-28.571-16-38.857l-77.714-77.714c-10.286-10.286-24.571-16-38.857-16s-28.571 5.714-38.857 16l-168 168-168-168c-10.286-10.286-24.571-16-38.857-16s-28.571 5.714-38.857 16l-77.714 77.714c-10.286 10.286-16 24.571-16 38.857s5.714 28.571 16 38.857l168 168-168 168c-10.286 10.286-16 24.571-16 38.857s5.714 28.571 16 38.857l77.714 77.714c10.286 10.286 24.571 16 38.857 16s28.571-5.714 38.857-16l168-168 168 168c10.286 10.286 24.571 16 38.857 16s28.571-5.714 38.857-16l77.714-77.714c10.286-10.286 16-24.571 16-38.857s-5.714-28.571-16-38.857l-168-168 168-168c10.286-10.286 16-24.571 16-38.857z" />
<glyph unicode="&#xf014;" glyph-name="trash-o" data-tags="trash-o" horiz-adv-x="805" d="M292.571 530.286v-329.143c0-10.286-8-18.286-18.286-18.286h-36.571c-10.286 0-18.286 8-18.286 18.286v329.143c0 10.286 8 18.286 18.286 18.286h36.571c10.286 0 18.286-8 18.286-18.286zM438.857 530.286v-329.143c0-10.286-8-18.286-18.286-18.286h-36.571c-10.286 0-18.286 8-18.286 18.286v329.143c0 10.286 8 18.286 18.286 18.286h36.571c10.286 0 18.286-8 18.286-18.286zM585.143 530.286v-329.143c0-10.286-8-18.286-18.286-18.286h-36.571c-10.286 0-18.286 8-18.286 18.286v329.143c0 10.286 8 18.286 18.286 18.286h36.571c10.286 0 18.286-8 18.286-18.286zM658.286 116.571v541.714h-512v-541.714c0-27.429 15.429-43.429 18.286-43.429h475.429c2.857 0 18.286 16 18.286 43.429zM274.286 731.428h256l-27.429 66.857c-1.714 2.286-6.857 5.714-9.714 6.286h-181.143c-3.429-0.571-8-4-9.714-6.286zM804.571 713.143v-36.571c0-10.286-8-18.286-18.286-18.286h-54.857v-541.714c0-62.857-41.143-116.571-91.429-116.571h-475.429c-50.286 0-91.429 51.429-91.429 114.286v544h-54.857c-10.286 0-18.286 8-18.286 18.286v36.571c0 10.286 8 18.286 18.286 18.286h176.571l40 95.429c11.429 28 45.714 50.857 76 50.857h182.857c30.286 0 64.571-22.857 76-50.857l40-95.429h176.571c10.286 0 18.286-8 18.286-18.286z" />
<glyph unicode="&#xf02b;" glyph-name="tag" data-tags="tag" horiz-adv-x="866" d="M256 694.857c0 40.571-32.571 73.143-73.143 73.143s-73.143-32.571-73.143-73.143 32.571-73.143 73.143-73.143 73.143 32.571 73.143 73.143zM865.714 365.714c0-19.429-8-38.286-21.143-51.429l-280.571-281.143c-13.714-13.143-32.571-21.143-52-21.143s-38.286 8-51.429 21.143l-408.571 409.143c-29.143 28.571-52 84-52 124.571v237.714c0 40 33.143 73.143 73.143 73.143h237.714c40.571 0 96-22.857 125.143-52l408.571-408c13.143-13.714 21.143-32.571 21.143-52z" />
<glyph unicode="&#xf036;" glyph-name="align-left" data-tags="align-left" d="M1024 182.857v-73.143c0-20-16.571-36.571-36.571-36.571h-950.857c-20 0-36.571 16.571-36.571 36.571v73.143c0 20 16.571 36.571 36.571 36.571h950.857c20 0 36.571-16.571 36.571-36.571zM804.571 402.286v-73.143c0-20-16.571-36.571-36.571-36.571h-731.429c-20 0-36.571 16.571-36.571 36.571v73.143c0 20 16.571 36.571 36.571 36.571h731.429c20 0 36.571-16.571 36.571-36.571zM950.857 621.714v-73.143c0-20-16.571-36.571-36.571-36.571h-877.714c-20 0-36.571 16.571-36.571 36.571v73.143c0 20 16.571 36.571 36.571 36.571h877.714c20 0 36.571-16.571 36.571-36.571zM731.429 841.143v-73.143c0-20-16.571-36.571-36.571-36.571h-658.286c-20 0-36.571 16.571-36.571 36.571v73.143c0 20 16.571 36.571 36.571 36.571h658.286c20 0 36.571-16.571 36.571-36.571z" />
<glyph unicode="&#xf037;" glyph-name="align-center" data-tags="align-center" d="M1024 182.857v-73.143c0-20-16.571-36.571-36.571-36.571h-950.857c-20 0-36.571 16.571-36.571 36.571v73.143c0 20 16.571 36.571 36.571 36.571h950.857c20 0 36.571-16.571 36.571-36.571zM804.571 402.286v-73.143c0-20-16.571-36.571-36.571-36.571h-512c-20 0-36.571 16.571-36.571 36.571v73.143c0 20 16.571 36.571 36.571 36.571h512c20 0 36.571-16.571 36.571-36.571zM950.857 621.714v-73.143c0-20-16.571-36.571-36.571-36.571h-804.571c-20 0-36.571 16.571-36.571 36.571v73.143c0 20 16.571 36.571 36.571 36.571h804.571c20 0 36.571-16.571 36.571-36.571zM731.429 841.143v-73.143c0-20-16.571-36.571-36.571-36.571h-365.714c-20 0-36.571 16.571-36.571 36.571v73.143c0 20 16.571 36.571 36.571 36.571h365.714c20 0 36.571-16.571 36.571-36.571z" />
<glyph unicode="&#xf038;" glyph-name="align-right" data-tags="align-right" d="M1024 182.857v-73.143c0-20-16.571-36.571-36.571-36.571h-950.857c-20 0-36.571 16.571-36.571 36.571v73.143c0 20 16.571 36.571 36.571 36.571h950.857c20 0 36.571-16.571 36.571-36.571zM1024 402.286v-73.143c0-20-16.571-36.571-36.571-36.571h-731.429c-20 0-36.571 16.571-36.571 36.571v73.143c0 20 16.571 36.571 36.571 36.571h731.429c20 0 36.571-16.571 36.571-36.571zM1024 621.714v-73.143c0-20-16.571-36.571-36.571-36.571h-877.714c-20 0-36.571 16.571-36.571 36.571v73.143c0 20 16.571 36.571 36.571 36.571h877.714c20 0 36.571-16.571 36.571-36.571zM1024 841.143v-73.143c0-20-16.571-36.571-36.571-36.571h-658.286c-20 0-36.571 16.571-36.571 36.571v73.143c0 20 16.571 36.571 36.571 36.571h658.286c20 0 36.571-16.571 36.571-36.571z" />
<glyph unicode="&#xf039;" glyph-name="align-justify" data-tags="align-justify" d="M1024 182.857v-73.143c0-20-16.571-36.571-36.571-36.571h-950.857c-20 0-36.571 16.571-36.571 36.571v73.143c0 20 16.571 36.571 36.571 36.571h950.857c20 0 36.571-16.571 36.571-36.571zM1024 402.286v-73.143c0-20-16.571-36.571-36.571-36.571h-950.857c-20 0-36.571 16.571-36.571 36.571v73.143c0 20 16.571 36.571 36.571 36.571h950.857c20 0 36.571-16.571 36.571-36.571zM1024 621.714v-73.143c0-20-16.571-36.571-36.571-36.571h-950.857c-20 0-36.571 16.571-36.571 36.571v73.143c0 20 16.571 36.571 36.571 36.571h950.857c20 0 36.571-16.571 36.571-36.571zM1024 841.143v-73.143c0-20-16.571-36.571-36.571-36.571h-950.857c-20 0-36.571 16.571-36.571 36.571v73.143c0 20 16.571 36.571 36.571 36.571h950.857c20 0 36.571-16.571 36.571-36.571z" />
<glyph unicode="&#xf03a;" glyph-name="list" data-tags="list" d="M146.286 201.143v-109.714c0-9.714-8.571-18.286-18.286-18.286h-109.714c-9.714 0-18.286 8.571-18.286 18.286v109.714c0 9.714 8.571 18.286 18.286 18.286h109.714c9.714 0 18.286-8.571 18.286-18.286zM146.286 420.571v-109.714c0-9.714-8.571-18.286-18.286-18.286h-109.714c-9.714 0-18.286 8.571-18.286 18.286v109.714c0 9.714 8.571 18.286 18.286 18.286h109.714c9.714 0 18.286-8.571 18.286-18.286zM146.286 640v-109.714c0-9.714-8.571-18.286-18.286-18.286h-109.714c-9.714 0-18.286 8.571-18.286 18.286v109.714c0 9.714 8.571 18.286 18.286 18.286h109.714c9.714 0 18.286-8.571 18.286-18.286zM1024 201.143v-109.714c0-9.714-8.571-18.286-18.286-18.286h-768c-9.714 0-18.286 8.571-18.286 18.286v109.714c0 9.714 8.571 18.286 18.286 18.286h768c9.714 0 18.286-8.571 18.286-18.286zM146.286 859.428v-109.714c0-9.714-8.571-18.286-18.286-18.286h-109.714c-9.714 0-18.286 8.571-18.286 18.286v109.714c0 9.714 8.571 18.286 18.286 18.286h109.714c9.714 0 18.286-8.571 18.286-18.286zM1024 420.571v-109.714c0-9.714-8.571-18.286-18.286-18.286h-768c-9.714 0-18.286 8.571-18.286 18.286v109.714c0 9.714 8.571 18.286 18.286 18.286h768c9.714 0 18.286-8.571 18.286-18.286zM1024 640v-109.714c0-9.714-8.571-18.286-18.286-18.286h-768c-9.714 0-18.286 8.571-18.286 18.286v109.714c0 9.714 8.571 18.286 18.286 18.286h768c9.714 0 18.286-8.571 18.286-18.286zM1024 859.428v-109.714c0-9.714-8.571-18.286-18.286-18.286h-768c-9.714 0-18.286 8.571-18.286 18.286v109.714c0 9.714 8.571 18.286 18.286 18.286h768c9.714 0 18.286-8.571 18.286-18.286z" />
<glyph unicode="&#xf03b;" glyph-name="dedent, outdent" data-tags="dedent, outdent" d="M219.429 640v-329.143c0-9.714-8.571-18.286-18.286-18.286-4.571 0-9.714 1.714-13.143 5.143l-164.571 164.571c-3.429 3.429-5.143 8.571-5.143 13.143s1.714 9.714 5.143 13.143l164.571 164.571c3.429 3.429 8.571 5.143 13.143 5.143 9.714 0 18.286-8.571 18.286-18.286zM1024 201.143v-109.714c0-9.714-8.571-18.286-18.286-18.286h-987.429c-9.714 0-18.286 8.571-18.286 18.286v109.714c0 9.714 8.571 18.286 18.286 18.286h987.429c9.714 0 18.286-8.571 18.286-18.286zM1024 420.571v-109.714c0-9.714-8.571-18.286-18.286-18.286h-621.714c-9.714 0-18.286 8.571-18.286 18.286v109.714c0 9.714 8.571 18.286 18.286 18.286h621.714c9.714 0 18.286-8.571 18.286-18.286zM1024 640v-109.714c0-9.714-8.571-18.286-18.286-18.286h-621.714c-9.714 0-18.286 8.571-18.286 18.286v109.714c0 9.714 8.571 18.286 18.286 18.286h621.714c9.714 0 18.286-8.571 18.286-18.286zM1024 859.428v-109.714c0-9.714-8.571-18.286-18.286-18.286h-987.429c-9.714 0-18.286 8.571-18.286 18.286v109.714c0 9.714 8.571 18.286 18.286 18.286h987.429c9.714 0 18.286-8.571 18.286-18.286z" />
<glyph unicode="&#xf03c;" glyph-name="indent" data-tags="indent" d="M201.143 475.428c0-4.571-1.714-9.714-5.143-13.143l-164.571-164.571c-3.429-3.429-8.571-5.143-13.143-5.143-9.714 0-18.286 8.571-18.286 18.286v329.143c0 9.714 8.571 18.286 18.286 18.286 4.571 0 9.714-1.714 13.143-5.143l164.571-164.571c3.429-3.429 5.143-8.571 5.143-13.143zM1024 201.143v-109.714c0-9.714-8.571-18.286-18.286-18.286h-987.429c-9.714 0-18.286 8.571-18.286 18.286v109.714c0 9.714 8.571 18.286 18.286 18.286h987.429c9.714 0 18.286-8.571 18.286-18.286zM1024 420.571v-109.714c0-9.714-8.571-18.286-18.286-18.286h-621.714c-9.714 0-18.286 8.571-18.286 18.286v109.714c0 9.714 8.571 18.286 18.286 18.286h621.714c9.714 0 18.286-8.571 18.286-18.286zM1024 640v-109.714c0-9.714-8.571-18.286-18.286-18.286h-621.714c-9.714 0-18.286 8.571-18.286 18.286v109.714c0 9.714 8.571 18.286 18.286 18.286h621.714c9.714 0 18.286-8.571 18.286-18.286zM1024 859.428v-109.714c0-9.714-8.571-18.286-18.286-18.286h-987.429c-9.714 0-18.286 8.571-18.286 18.286v109.714c0 9.714 8.571 18.286 18.286 18.286h987.429c9.714 0 18.286-8.571 18.286-18.286z" />
<glyph unicode="&#xf040;" glyph-name="pencil" data-tags="pencil" horiz-adv-x="866" d="M207.429 73.143l52 52-134.286 134.286-52-52v-61.143h73.143v-73.143h61.143zM506.286 603.428c0 7.429-5.143 12.571-12.571 12.571-3.429 0-6.857-1.143-9.714-4l-309.714-309.714c-2.857-2.857-4-6.286-4-9.714 0-7.429 5.143-12.571 12.571-12.571 3.429 0 6.857 1.143 9.714 4l309.714 309.714c2.857 2.857 4 6.286 4 9.714zM475.429 713.143l237.714-237.714-475.429-475.429h-237.714v237.714zM865.714 658.286c0-19.429-8-38.286-21.143-51.429l-94.857-94.857-237.714 237.714 94.857 94.286c13.143 13.714 32 21.714 51.429 21.714s38.286-8 52-21.714l134.286-133.714c13.143-13.714 21.143-32.571 21.143-52z" />
<glyph unicode="&#xf044;" glyph-name="edit, pencil-square-o" data-tags="edit, pencil-square-o" horiz-adv-x="1025" d="M507.429 274.286l66.286 66.286-86.857 86.857-66.286-66.286v-32h54.857v-54.857h32zM758.857 685.714c-5.143 5.143-13.714 4.571-18.857-0.571l-200-200c-5.143-5.143-5.714-13.714-0.571-18.857s13.714-4.571 18.857 0.571l200 200c5.143 5.143 5.714 13.714 0.571 18.857zM804.571 346.286v-108.571c0-90.857-73.714-164.571-164.571-164.571h-475.429c-90.857 0-164.571 73.714-164.571 164.571v475.429c0 90.857 73.714 164.571 164.571 164.571h475.429c22.857 0 45.714-4.571 66.857-14.286 5.143-2.286 9.143-7.429 10.286-13.143 1.143-6.286-0.571-12-5.143-16.571l-28-28c-5.143-5.143-12-6.857-18.286-4.571-8.571 2.286-17.143 3.429-25.714 3.429h-475.429c-50.286 0-91.429-41.143-91.429-91.429v-475.429c0-50.286 41.143-91.429 91.429-91.429h475.429c50.286 0 91.429 41.143 91.429 91.429v72c0 4.571 1.714 9.143 5.143 12.571l36.571 36.571c5.714 5.714 13.143 6.857 20 4s11.429-9.143 11.429-16.571zM749.714 768l164.571-164.571-384-384h-164.571v164.571zM1003.429 692.571l-52.571-52.571-164.571 164.571 52.571 52.571c21.143 21.143 56.571 21.143 77.714 0l86.857-86.857c21.143-21.143 21.143-56.571 0-77.714z" />
<glyph unicode="&#xf045;" glyph-name="share-square-o" data-tags="share-square-o" horiz-adv-x="954" d="M804.571 385.714v-148c0-90.857-73.714-164.571-164.571-164.571h-475.429c-90.857 0-164.571 73.714-164.571 164.571v475.429c0 90.857 73.714 164.571 164.571 164.571h145.714c9.714 0 18.286-8 18.286-18.286 0-9.143-6.286-16.571-14.857-18.286-28.571-9.714-54.286-21.143-76-34.286-2.857-1.143-5.714-2.286-9.143-2.286h-64c-50.286 0-91.429-41.143-91.429-91.429v-475.429c0-50.286 41.143-91.429 91.429-91.429h475.429c50.286 0 91.429 41.143 91.429 91.429v122.286c0 6.857 4 13.143 10.286 16.571 11.429 5.143 21.714 12.571 30.857 21.143 5.143 5.143 13.143 7.429 20 4.571s12-9.143 12-16.571zM940 669.143l-219.429-219.429c-6.857-7.429-16-10.857-25.714-10.857-4.571 0-9.714 1.143-14.286 2.857-13.143 5.714-22.286 18.857-22.286 33.714v109.714h-91.429c-125.714 0-205.714-24-250.286-74.857-46.286-53.143-60-138.857-42.286-270.286 1.143-8-4-16-11.429-19.429-2.286-0.571-4.571-1.143-6.857-1.143-5.714 0-11.429 2.857-14.857 7.429-4 5.714-94.857 134.286-94.857 248.571 0 153.143 48 329.143 420.571 329.143h91.429v109.714c0 14.857 9.143 28 22.286 33.714 4.571 1.714 9.714 2.857 14.286 2.857 9.714 0 18.857-4 25.714-10.857l219.429-219.429c14.286-14.286 14.286-37.143 0-51.429z" />
<glyph unicode="&#xf046;" glyph-name="check-square-o" data-tags="check-square-o" horiz-adv-x="955" d="M804.571 419.428v-181.714c0-90.857-73.714-164.571-164.571-164.571h-475.429c-90.857 0-164.571 73.714-164.571 164.571v475.429c0 90.857 73.714 164.571 164.571 164.571h475.429c22.857 0 45.714-4.571 66.857-14.286 5.143-2.286 9.143-7.429 10.286-13.143 1.143-6.286-0.571-12-5.143-16.571l-28-28c-3.429-3.429-8.571-5.714-13.143-5.714-1.714 0-3.429 0.571-5.143 1.143-8.571 2.286-17.143 3.429-25.714 3.429h-475.429c-50.286 0-91.429-41.143-91.429-91.429v-475.429c0-50.286 41.143-91.429 91.429-91.429h475.429c50.286 0 91.429 41.143 91.429 91.429v145.143c0 4.571 1.714 9.143 5.143 12.571l36.571 36.571c4 4 8.571 5.714 13.143 5.714 2.286 0 4.571-0.571 6.857-1.714 6.857-2.857 11.429-9.143 11.429-16.571zM936.571 698.857l-465.143-465.143c-18.286-18.286-46.857-18.286-65.143 0l-245.714 245.714c-18.286 18.286-18.286 46.857 0 65.143l62.857 62.857c18.286 18.286 46.857 18.286 65.143 0l150.286-150.286 369.714 369.714c18.286 18.286 46.857 18.286 65.143 0l62.857-62.857c18.286-18.286 18.286-46.857 0-65.143z" />
<glyph unicode="&#xf047;" glyph-name="arrows" data-tags="arrows" d="M1024 438.857c0-9.714-4-18.857-10.857-25.714l-146.286-146.286c-6.857-6.857-16-10.857-25.714-10.857-20 0-36.571 16.571-36.571 36.571v73.143h-219.429v-219.429h73.143c20 0 36.571-16.571 36.571-36.571 0-9.714-4-18.857-10.857-25.714l-146.286-146.286c-6.857-6.857-16-10.857-25.714-10.857s-18.857 4-25.714 10.857l-146.286 146.286c-6.857 6.857-10.857 16-10.857 25.714 0 20 16.571 36.571 36.571 36.571h73.143v219.429h-219.429v-73.143c0-20-16.571-36.571-36.571-36.571-9.714 0-18.857 4-25.714 10.857l-146.286 146.286c-6.857 6.857-10.857 16-10.857 25.714s4 18.857 10.857 25.714l146.286 146.286c6.857 6.857 16 10.857 25.714 10.857 20 0 36.571-16.571 36.571-36.571v-73.143h219.429v219.429h-73.143c-20 0-36.571 16.571-36.571 36.571 0 9.714 4 18.857 10.857 25.714l146.286 146.286c6.857 6.857 16 10.857 25.714 10.857s18.857-4 25.714-10.857l146.286-146.286c6.857-6.857 10.857-16 10.857-25.714 0-20-16.571-36.571-36.571-36.571h-73.143v-219.429h219.429v73.143c0 20 16.571 36.571 36.571 36.571 9.714 0 18.857-4 25.714-10.857l146.286-146.286c6.857-6.857 10.857-16 10.857-25.714z" />
<glyph unicode="&#xf08b;" glyph-name="sign-out" data-tags="sign-out" horiz-adv-x="896" d="M365.714 128c0-16 7.429-54.857-18.286-54.857h-182.857c-90.857 0-164.571 73.714-164.571 164.571v402.286c0 90.857 73.714 164.571 164.571 164.571h182.857c9.714 0 18.286-8.571 18.286-18.286 0-16 7.429-54.857-18.286-54.857h-182.857c-50.286 0-91.429-41.143-91.429-91.429v-402.286c0-50.286 41.143-91.429 91.429-91.429h164.571c14.286 0 36.571 2.857 36.571-18.286zM896 438.857c0-9.714-4-18.857-10.857-25.714l-310.857-310.857c-6.857-6.857-16-10.857-25.714-10.857-20 0-36.571 16.571-36.571 36.571v164.571h-256c-20 0-36.571 16.571-36.571 36.571v219.429c0 20 16.571 36.571 36.571 36.571h256v164.571c0 20 16.571 36.571 36.571 36.571 9.714 0 18.857-4 25.714-10.857l310.857-310.857c6.857-6.857 10.857-16 10.857-25.714z" />
<glyph unicode="&#xf08c;" glyph-name="linkedin-square" data-tags="linkedin-square" horiz-adv-x="878" d="M135.429 142.857h132v396.571h-132v-396.571zM276 661.714c-0.571 38.857-28.571 68.571-73.714 68.571s-74.857-29.714-74.857-68.571c0-37.714 28.571-68.571 73.143-68.571h0.571c46.286 0 74.857 30.857 74.857 68.571zM610.286 142.857h132v227.429c0 121.714-65.143 178.286-152 178.286-70.857 0-102.286-39.429-119.429-66.857h1.143v57.714h-132s1.714-37.143 0-396.571v0h132v221.714c0 11.429 0.571 23.429 4 32 9.714 23.429 31.429 48 68 48 47.429 0 66.286-36 66.286-89.714v-212zM877.714 713.143v-548.571c0-90.857-73.714-164.571-164.571-164.571h-548.571c-90.857 0-164.571 73.714-164.571 164.571v548.571c0 90.857 73.714 164.571 164.571 164.571h548.571c90.857 0 164.571-73.714 164.571-164.571z" />
<glyph unicode="&#xf098;" glyph-name="phone-square" data-tags="phone-square" horiz-adv-x="878" d="M731.429 269.143c0 2.857 0 6.286-1.143 9.143-3.429 10.286-86.857 52.571-102.857 61.714-10.857 6.286-24 18.857-37.143 18.857-25.143 0-62.286-74.857-84.571-74.857-11.429 0-25.714 10.286-36 16-75.429 42.286-127.429 94.286-169.714 169.714-5.714 10.286-16 24.571-16 36 0 22.286 74.857 59.429 74.857 84.571 0 13.143-12.571 26.286-18.857 37.143-9.143 16-51.429 99.429-61.714 102.857-2.857 1.143-6.286 1.143-9.143 1.143-14.857 0-44-6.857-57.714-12.571-37.714-17.143-65.143-89.143-65.143-128.571 0-38.286 15.429-73.143 28.571-108.571 45.714-125.143 181.714-261.143 306.857-306.857 35.429-13.143 70.286-28.571 108.571-28.571 39.429 0 111.429 27.429 128.571 65.143 5.714 13.714 12.571 42.857 12.571 57.714zM877.714 713.143v-548.571c0-90.857-73.714-164.571-164.571-164.571h-548.571c-90.857 0-164.571 73.714-164.571 164.571v548.571c0 90.857 73.714 164.571 164.571 164.571h548.571c90.857 0 164.571-73.714 164.571-164.571z" />
<glyph unicode="&#xf099;" glyph-name="twitter" data-tags="twitter" horiz-adv-x="951" d="M925.714 717.714c-25.143-36.571-56.571-69.143-92.571-95.429 0.571-8 0.571-16 0.571-24 0-244-185.714-525.143-525.143-525.143-104.571 0-201.714 30.286-283.429 82.857 14.857-1.714 29.143-2.286 44.571-2.286 86.286 0 165.714 29.143 229.143 78.857-81.143 1.714-149.143 54.857-172.571 128 11.429-1.714 22.857-2.857 34.857-2.857 16.571 0 33.143 2.286 48.571 6.286-84.571 17.143-148 91.429-148 181.143v2.286c24.571-13.714 53.143-22.286 83.429-23.429-49.714 33.143-82.286 89.714-82.286 153.714 0 34.286 9.143 65.714 25.143 93.143 90.857-112 227.429-185.143 380.571-193.143-2.857 13.714-4.571 28-4.571 42.286 0 101.714 82.286 184.571 184.571 184.571 53.143 0 101.143-22.286 134.857-58.286 41.714 8 81.714 23.429 117.143 44.571-13.714-42.857-42.857-78.857-81.143-101.714 37.143 4 73.143 14.286 106.286 28.571z" />
<glyph unicode="&#xf09a;" glyph-name="facebook, facebook-f" data-tags="facebook, facebook-f" horiz-adv-x="602" d="M548 944v-150.857h-89.714c-70.286 0-83.429-33.714-83.429-82.286v-108h167.429l-22.286-169.143h-145.143v-433.714h-174.857v433.714h-145.714v169.143h145.714v124.571c0 144.571 88.571 223.429 217.714 223.429 61.714 0 114.857-4.571 130.286-6.857z" />
<glyph unicode="&#xf09b;" glyph-name="github" data-tags="github" horiz-adv-x="878" d="M438.857 877.714c242.286 0 438.857-196.571 438.857-438.857 0-193.714-125.714-358.286-300-416.571-22.286-4-30.286 9.714-30.286 21.143 0 14.286 0.571 61.714 0.571 120.571 0 41.143-13.714 67.429-29.714 81.143 97.714 10.857 200.571 48 200.571 216.571 0 48-17.143 86.857-45.143 117.714 4.571 11.429 19.429 56-4.571 116.571-36.571 11.429-120.571-45.143-120.571-45.143-34.857 9.714-72.571 14.857-109.714 14.857s-74.857-5.143-109.714-14.857c0 0-84 56.571-120.571 45.143-24-60.571-9.143-105.143-4.571-116.571-28-30.857-45.143-69.714-45.143-117.714 0-168 102.286-205.714 200-216.571-12.571-11.429-24-30.857-28-58.857-25.143-11.429-89.143-30.857-127.429 36.571-24 41.714-67.429 45.143-67.429 45.143-42.857 0.571-2.857-26.857-2.857-26.857 28.571-13.143 48.571-64 48.571-64 25.714-78.286 148-52 148-52 0-36.571 0.571-70.857 0.571-81.714 0-11.429-8-25.143-30.286-21.143-174.286 58.286-300 222.857-300 416.571 0 242.286 196.571 438.857 438.857 438.857zM166.286 247.428c1.143 2.286-0.571 5.143-4 6.857-3.429 1.143-6.286 0.571-7.429-1.143-1.143-2.286 0.571-5.143 4-6.857 2.857-1.714 6.286-1.143 7.429 1.143zM184 228c2.286 1.714 1.714 5.714-1.143 9.143-2.857 2.857-6.857 4-9.143 1.714-2.286-1.714-1.714-5.714 1.143-9.143 2.857-2.857 6.857-4 9.143-1.714zM201.143 202.286c2.857 2.286 2.857 6.857 0 10.857-2.286 4-6.857 5.714-9.714 3.429-2.857-1.714-2.857-6.286 0-10.286s7.429-5.714 9.714-4zM225.143 178.286c2.286 2.286 1.143 7.429-2.286 10.857-4 4-9.143 4.571-11.429 1.714-2.857-2.286-1.714-7.429 2.286-10.857 4-4 9.143-4.571 11.429-1.714zM257.714 164c1.143 3.429-2.286 7.429-7.429 9.143-4.571 1.143-9.714-0.571-10.857-4s2.286-7.429 7.429-8.571c4.571-1.714 9.714 0 10.857 3.429zM293.714 161.143c0 4-4.571 6.857-9.714 6.286-5.143 0-9.143-2.857-9.143-6.286 0-4 4-6.857 9.714-6.286 5.143 0 9.143 2.857 9.143 6.286zM326.857 166.857c-0.571 3.429-5.143 5.714-10.286 5.143-5.143-1.143-8.571-4.571-8-8.571 0.571-3.429 5.143-5.714 10.286-4.571s8.571 4.571 8 8z" />
<glyph unicode="&#xf0ae;" glyph-name="tasks" data-tags="tasks" d="M585.143 146.286h365.714v73.143h-365.714v-73.143zM365.714 438.857h585.143v73.143h-585.143v-73.143zM731.429 731.428h219.429v73.143h-219.429v-73.143zM1024 256v-146.286c0-20-16.571-36.571-36.571-36.571h-950.857c-20 0-36.571 16.571-36.571 36.571v146.286c0 20 16.571 36.571 36.571 36.571h950.857c20 0 36.571-16.571 36.571-36.571zM1024 548.571v-146.286c0-20-16.571-36.571-36.571-36.571h-950.857c-20 0-36.571 16.571-36.571 36.571v146.286c0 20 16.571 36.571 36.571 36.571h950.857c20 0 36.571-16.571 36.571-36.571zM1024 841.143v-146.286c0-20-16.571-36.571-36.571-36.571h-950.857c-20 0-36.571 16.571-36.571 36.571v146.286c0 20 16.571 36.571 36.571 36.571h950.857c20 0 36.571-16.571 36.571-36.571z" />
<glyph unicode="&#xf0b0;" glyph-name="filter" data-tags="filter" horiz-adv-x="805" d="M801.714 782.286c5.714-13.714 2.857-29.714-8-40l-281.714-281.714v-424c0-14.857-9.143-28-22.286-33.714-4.571-1.714-9.714-2.857-14.286-2.857-9.714 0-18.857 3.429-25.714 10.857l-146.286 146.286c-6.857 6.857-10.857 16-10.857 25.714v277.714l-281.714 281.714c-10.857 10.286-13.714 26.286-8 40 5.714 13.143 18.857 22.286 33.714 22.286h731.429c14.857 0 28-9.143 33.714-22.286z" />
<glyph unicode="&#xf0b2;" glyph-name="arrows-alt" data-tags="arrows-alt" horiz-adv-x="878" d="M733.143 641.714l-202.857-202.857 202.857-202.857 82.286 82.286c10.286 10.857 26.286 13.714 40 8 13.143-5.714 22.286-18.857 22.286-33.714v-256c0-20-16.571-36.571-36.571-36.571h-256c-14.857 0-28 9.143-33.714 22.857-5.714 13.143-2.857 29.143 8 39.429l82.286 82.286-202.857 202.857-202.857-202.857 82.286-82.286c10.857-10.286 13.714-26.286 8-39.429-5.714-13.714-18.857-22.857-33.714-22.857h-256c-20 0-36.571 16.571-36.571 36.571v256c0 14.857 9.143 28 22.857 33.714 13.143 5.714 29.143 2.857 39.429-8l82.286-82.286 202.857 202.857-202.857 202.857-82.286-82.286c-6.857-6.857-16-10.857-25.714-10.857-4.571 0-9.714 1.143-13.714 2.857-13.714 5.714-22.857 18.857-22.857 33.714v256c0 20 16.571 36.571 36.571 36.571h256c14.857 0 28-9.143 33.714-22.857 5.714-13.143 2.857-29.143-8-39.429l-82.286-82.286 202.857-202.857 202.857 202.857-82.286 82.286c-10.857 10.286-13.714 26.286-8 39.429 5.714 13.714 18.857 22.857 33.714 22.857h256c20 0 36.571-16.571 36.571-36.571v-256c0-14.857-9.143-28-22.286-33.714-4.571-1.714-9.714-2.857-14.286-2.857-9.714 0-18.857 4-25.714 10.857z" />
<glyph unicode="&#xf0c6;" glyph-name="paperclip" data-tags="paperclip" horiz-adv-x="805" d="M802.286 159.428c0-89.143-68-157.143-157.143-157.143-50.286 0-98.857 21.714-134.286 57.143l-444 443.429c-40.571 41.143-64.571 97.143-64.571 154.857 0 121.143 95.429 217.714 216.571 217.714 58.286 0 114.286-23.429 156-64.571l345.714-346.286c3.429-3.429 5.714-8 5.714-12.571 0-12-32-44-44-44-5.143 0-9.714 2.286-13.143 5.714l-346.286 346.857c-27.429 26.857-64.571 44-103.429 44-81.143 0-144-65.714-144-146.286 0-38.857 16-76 43.429-103.429l443.429-444c21.714-21.714 52-36 82.857-36 48.571 0 84.571 36 84.571 84.571 0 31.429-14.286 61.143-36 82.857l-332 332c-9.143 8.571-21.714 13.714-34.286 13.714-21.714 0-38.286-16-38.286-38.286 0-12.571 5.714-24.571 14.286-33.714l234.286-234.286c3.429-3.429 5.714-8 5.714-12.571 0-12-32.571-44.571-44.571-44.571-4.571 0-9.143 2.286-12.571 5.714l-234.286 234.286c-22.857 22.286-36 53.714-36 85.143 0 62.857 49.143 112 112 112 32 0 62.857-13.143 85.143-36l332-332c36-35.429 57.143-84 57.143-134.286z" />
<glyph unicode="&#xf0c9;" glyph-name="bars, navicon, reorder" data-tags="bars, navicon, reorder" horiz-adv-x="878" d="M877.714 182.857v-73.143c0-20-16.571-36.571-36.571-36.571h-804.571c-20 0-36.571 16.571-36.571 36.571v73.143c0 20 16.571 36.571 36.571 36.571h804.571c20 0 36.571-16.571 36.571-36.571zM877.714 475.428v-73.143c0-20-16.571-36.571-36.571-36.571h-804.571c-20 0-36.571 16.571-36.571 36.571v73.143c0 20 16.571 36.571 36.571 36.571h804.571c20 0 36.571-16.571 36.571-36.571zM877.714 768v-73.143c0-20-16.571-36.571-36.571-36.571h-804.571c-20 0-36.571 16.571-36.571 36.571v73.143c0 20 16.571 36.571 36.571 36.571h804.571c20 0 36.571-16.571 36.571-36.571z" />
<glyph unicode="&#xf0ca;" glyph-name="list-ul" data-tags="list-ul" d="M219.429 146.286c0-60.571-49.143-109.714-109.714-109.714s-109.714 49.143-109.714 109.714 49.143 109.714 109.714 109.714 109.714-49.143 109.714-109.714zM219.429 438.857c0-60.571-49.143-109.714-109.714-109.714s-109.714 49.143-109.714 109.714 49.143 109.714 109.714 109.714 109.714-49.143 109.714-109.714zM1024 201.143v-109.714c0-9.714-8.571-18.286-18.286-18.286h-694.857c-9.714 0-18.286 8.571-18.286 18.286v109.714c0 9.714 8.571 18.286 18.286 18.286h694.857c9.714 0 18.286-8.571 18.286-18.286zM219.429 731.428c0-60.571-49.143-109.714-109.714-109.714s-109.714 49.143-109.714 109.714 49.143 109.714 109.714 109.714 109.714-49.143 109.714-109.714zM1024 493.714v-109.714c0-9.714-8.571-18.286-18.286-18.286h-694.857c-9.714 0-18.286 8.571-18.286 18.286v109.714c0 9.714 8.571 18.286 18.286 18.286h694.857c9.714 0 18.286-8.571 18.286-18.286zM1024 786.286v-109.714c0-9.714-8.571-18.286-18.286-18.286h-694.857c-9.714 0-18.286 8.571-18.286 18.286v109.714c0 9.714 8.571 18.286 18.286 18.286h694.857c9.714 0 18.286-8.571 18.286-18.286z" />
<glyph unicode="&#xf0cb;" glyph-name="list-ol" data-tags="list-ol" horiz-adv-x="1033" d="M217.714 25.143c0-62.857-49.143-98.286-108.571-98.286-36 0-72.571 12-98.286 37.714l32.571 50.286c15.429-14.286 38.857-25.714 60.571-25.714 20 0 41.143 9.714 41.143 32.571 0 32-36.571 33.714-60 32l-14.857 32c20.571 26.286 39.429 55.429 64 77.714v0.571c-18.286 0-37.143-1.143-55.429-1.143v-30.286h-60.571v86.857h190.286v-50.286l-54.286-65.714c38.286-9.143 63.429-38.857 63.429-78.286zM218.857 383.428v-90.857h-206.857c-1.714 10.286-3.429 20.571-3.429 30.857 0 105.714 129.143 121.714 129.143 169.714 0 19.429-12 29.714-30.857 29.714-20 0-36.571-17.143-46.286-33.143l-48.571 33.714c18.857 39.429 57.714 61.714 101.143 61.714 53.143 0 98.857-31.429 98.857-88 0-84.571-124-103.429-125.714-148h72.571v34.286h60zM1024 201.143v-109.714c0-9.714-8.571-18.286-18.286-18.286h-694.857c-10.286 0-18.286 8.571-18.286 18.286v109.714c0 10.286 8 18.286 18.286 18.286h694.857c9.714 0 18.286-8 18.286-18.286zM219.429 714.857v-56.571h-191.429v56.571h61.143c0 46.286 0.571 92.571 0.571 138.857v6.857h-1.143c-6.286-12.571-17.714-21.143-28.571-30.857l-40.571 43.429 77.714 72.571h60.571v-230.857h61.714zM1024 493.714v-109.714c0-9.714-8.571-18.286-18.286-18.286h-694.857c-10.286 0-18.286 8.571-18.286 18.286v109.714c0 10.286 8 18.286 18.286 18.286h694.857c9.714 0 18.286-8 18.286-18.286zM1024 786.286v-109.714c0-9.714-8.571-18.286-18.286-18.286h-694.857c-10.286 0-18.286 8.571-18.286 18.286v109.714c0 9.714 8 18.286 18.286 18.286h694.857c9.714 0 18.286-8.571 18.286-18.286z" />
<glyph unicode="&#xf0d2;" glyph-name="pinterest" data-tags="pinterest" horiz-adv-x="878" d="M877.714 438.857c0-242.286-196.571-438.857-438.857-438.857-43.429 0-84.571 6.286-124.571 18.286 16.571 26.286 35.429 60 44.571 93.714 0 0 5.143 19.429 30.857 120.571 14.857-29.143 59.429-54.857 106.857-54.857 141.143 0 237.143 128.571 237.143 301.143 0 129.714-110.286 251.429-278.286 251.429-208 0-313.143-149.714-313.143-274.286 0-75.429 28.571-142.857 89.714-168 9.714-4 18.857 0 21.714 11.429 2.286 7.429 6.857 26.857 9.143 34.857 2.857 11.429 1.714 14.857-6.286 24.571-17.714 21.143-29.143 48-29.143 86.286 0 110.857 82.857 210.286 216 210.286 117.714 0 182.857-72 182.857-168.571 0-126.286-56-233.143-139.429-233.143-45.714 0-80 37.714-69.143 84.571 13.143 55.429 38.857 115.429 38.857 155.429 0 36-19.429 66.286-59.429 66.286-46.857 0-84.571-48.571-84.571-113.714 0 0 0-41.714 14.286-69.714-48-203.429-56.571-238.857-56.571-238.857-8-33.143-8.571-70.286-7.429-101.143-154.857 68-262.857 222.286-262.857 402.286 0 242.286 196.571 438.857 438.857 438.857s438.857-196.571 438.857-438.857z" />
<glyph unicode="&#xf0d3;" glyph-name="pinterest-square" data-tags="pinterest-square" horiz-adv-x="878" d="M713.143 877.714c90.857 0 164.571-73.714 164.571-164.571v-548.571c0-90.857-73.714-164.571-164.571-164.571h-414.286c18.857 26.857 49.714 73.143 61.714 120 0 0 5.143 19.429 30.286 119.429 15.429-29.143 59.429-54.286 106.286-54.286 139.429 0 234.286 127.429 234.286 297.714 0 128.571-109.143 248.571-274.857 248.571-206.286 0-310.286-148-310.286-271.429 0-74.286 28.571-140.571 89.143-165.714 9.714-4 18.857 0 21.714 10.857 1.714 7.429 6.286 26.857 8.571 34.857 2.857 10.857 1.714 14.857-6.286 24-17.143 21.143-28.571 47.429-28.571 85.714 0 109.714 82.286 207.429 213.714 207.429 116.571 0 180.571-70.857 180.571-166.286 0-125.143-55.429-230.857-137.714-230.857-45.143 0-79.429 37.714-68.571 84 13.143 54.857 38.286 114.286 38.286 153.714 0 35.429-18.857 65.143-58.286 65.143-46.286 0-83.429-48-83.429-112 0 0 0-41.143 13.714-69.143-47.429-201.143-56-236.571-56-236.571-12.571-52.571-7.429-113.714-4-145.143h-104.571c-90.857 0-164.571 73.714-164.571 164.571v548.571c0 90.857 73.714 164.571 164.571 164.571h548.571z" />
<glyph unicode="&#xf0d4;" glyph-name="google-plus-square" data-tags="google-plus-square" horiz-adv-x="878" d="M524 433.714c0 14.286-1.714 25.714-3.429 36.571h-206.857v-75.429h124c-4.571-32-37.143-94.286-124-94.286-75.429 0-136.571 61.714-136.571 138.286s61.143 138.286 136.571 138.286c42.286 0 70.857-17.714 87.429-33.714l59.429 57.714c-38.286 35.429-88 57.143-146.857 57.143-121.714 0-219.429-98.286-219.429-219.429s97.714-219.429 219.429-219.429c126.286 0 210.286 89.143 210.286 214.286zM721.143 407.428h62.286v62.857h-62.286v62.857h-62.857v-62.857h-62.857v-62.857h62.857v-62.857h62.857v62.857zM877.714 713.143v-548.571c0-90.857-73.714-164.571-164.571-164.571h-548.571c-90.857 0-164.571 73.714-164.571 164.571v548.571c0 90.857 73.714 164.571 164.571 164.571h548.571c90.857 0 164.571-73.714 164.571-164.571z" />
<glyph unicode="&#xf0d5;" glyph-name="google-plus" data-tags="google-plus" horiz-adv-x="1317" d="M821.143 429.143c0-239.429-160.571-409.143-402.286-409.143-231.429 0-418.857 187.429-418.857 418.857s187.429 418.857 418.857 418.857c113.143 0 207.429-41.143 280.571-109.714l-113.714-109.143c-30.857 29.714-85.143 64.571-166.857 64.571-142.857 0-259.429-118.286-259.429-264.571s116.571-264.571 259.429-264.571c165.714 0 228 119.429 237.714 180.571h-237.714v144h395.429c4-21.143 6.857-42.286 6.857-69.714zM1316.571 498.857v-120h-119.429v-119.429h-120v119.429h-119.429v120h119.429v119.429h120v-119.429h119.429z" />
<glyph unicode="&#xf0d7;" glyph-name="caret-down" data-tags="caret-down" horiz-adv-x="585" d="M585.143 548.571c0-9.714-4-18.857-10.857-25.714l-256-256c-6.857-6.857-16-10.857-25.714-10.857s-18.857 4-25.714 10.857l-256 256c-6.857 6.857-10.857 16-10.857 25.714 0 20 16.571 36.571 36.571 36.571h512c20 0 36.571-16.571 36.571-36.571z" />
<glyph unicode="&#xf0d8;" glyph-name="caret-up" data-tags="caret-up" horiz-adv-x="585" d="M585.143 256c0-20-16.571-36.571-36.571-36.571h-512c-20 0-36.571 16.571-36.571 36.571 0 9.714 4 18.857 10.857 25.714l256 256c6.857 6.857 16 10.857 25.714 10.857s18.857-4 25.714-10.857l256-256c6.857-6.857 10.857-16 10.857-25.714z" />
<glyph unicode="&#xf0d9;" glyph-name="caret-left" data-tags="caret-left" horiz-adv-x="402" d="M365.714 694.857v-512c0-20-16.571-36.571-36.571-36.571-9.714 0-18.857 4-25.714 10.857l-256 256c-6.857 6.857-10.857 16-10.857 25.714s4 18.857 10.857 25.714l256 256c6.857 6.857 16 10.857 25.714 10.857 20 0 36.571-16.571 36.571-36.571z" />
<glyph unicode="&#xf0da;" glyph-name="caret-right" data-tags="caret-right" horiz-adv-x="329" d="M329.143 438.857c0-9.714-4-18.857-10.857-25.714l-256-256c-6.857-6.857-16-10.857-25.714-10.857-20 0-36.571 16.571-36.571 36.571v512c0 20 16.571 36.571 36.571 36.571 9.714 0 18.857-4 25.714-10.857l256-256c6.857-6.857 10.857-16 10.857-25.714z" />
<glyph unicode="&#xf0dc;" glyph-name="sort, unsorted" data-tags="sort, unsorted" horiz-adv-x="585" d="M585.143 329.143c0-9.714-4-18.857-10.857-25.714l-256-256c-6.857-6.857-16-10.857-25.714-10.857s-18.857 4-25.714 10.857l-256 256c-6.857 6.857-10.857 16-10.857 25.714 0 20 16.571 36.571 36.571 36.571h512c20 0 36.571-16.571 36.571-36.571zM585.143 548.571c0-20-16.571-36.571-36.571-36.571h-512c-20 0-36.571 16.571-36.571 36.571 0 9.714 4 18.857 10.857 25.714l256 256c6.857 6.857 16 10.857 25.714 10.857s18.857-4 25.714-10.857l256-256c6.857-6.857 10.857-16 10.857-25.714z" />
<glyph unicode="&#xf0dd;" glyph-name="sort-desc, sort-down" data-tags="sort-desc, sort-down" horiz-adv-x="585" d="M585.143 329.143c0-9.714-4-18.857-10.857-25.714l-256-256c-6.857-6.857-16-10.857-25.714-10.857s-18.857 4-25.714 10.857l-256 256c-6.857 6.857-10.857 16-10.857 25.714 0 20 16.571 36.571 36.571 36.571h512c20 0 36.571-16.571 36.571-36.571z" />
<glyph unicode="&#xf0de;" glyph-name="sort-asc, sort-up" data-tags="sort-asc, sort-up" horiz-adv-x="585" d="M585.143 548.571c0-20-16.571-36.571-36.571-36.571h-512c-20 0-36.571 16.571-36.571 36.571 0 9.714 4 18.857 10.857 25.714l256 256c6.857 6.857 16 10.857 25.714 10.857s18.857-4 25.714-10.857l256-256c6.857-6.857 10.857-16 10.857-25.714z" />
<glyph unicode="&#xf0e4;" glyph-name="dashboard, tachometer" data-tags="dashboard, tachometer" d="M219.429 292.571c0 40.571-32.571 73.143-73.143 73.143s-73.143-32.571-73.143-73.143 32.571-73.143 73.143-73.143 73.143 32.571 73.143 73.143zM329.143 548.571c0 40.571-32.571 73.143-73.143 73.143s-73.143-32.571-73.143-73.143 32.571-73.143 73.143-73.143 73.143 32.571 73.143 73.143zM573.714 273.714l57.714 218.286c4.571 19.429-6.857 39.429-26.286 44.571v0c-19.429 5.143-39.429-6.857-44.571-26.286l-57.714-218.286c-45.143-3.429-84.571-34.857-97.143-81.143-15.429-58.857 20-118.857 78.286-134.286 58.857-15.429 118.857 20 134.286 78.286 12 46.286-7.429 93.143-44.571 118.857zM950.857 292.571c0 40.571-32.571 73.143-73.143 73.143s-73.143-32.571-73.143-73.143 32.571-73.143 73.143-73.143 73.143 32.571 73.143 73.143zM585.143 658.286c0 40.571-32.571 73.143-73.143 73.143s-73.143-32.571-73.143-73.143 32.571-73.143 73.143-73.143 73.143 32.571 73.143 73.143zM841.143 548.571c0 40.571-32.571 73.143-73.143 73.143s-73.143-32.571-73.143-73.143 32.571-73.143 73.143-73.143 73.143 32.571 73.143 73.143zM1024 292.571c0-98.286-28-193.143-80.571-276-6.857-10.286-18.286-16.571-30.857-16.571h-801.143c-12.571 0-24 6.286-30.857 16.571-52.571 82.286-80.571 177.714-80.571 276 0 282.286 229.714 512 512 512s512-229.714 512-512z" />
<glyph unicode="&#xf0e8;" glyph-name="sitemap" data-tags="sitemap" d="M1024 237.714v-182.857c0-30.286-24.571-54.857-54.857-54.857h-182.857c-30.286 0-54.857 24.571-54.857 54.857v182.857c0 30.286 24.571 54.857 54.857 54.857h54.857v109.714h-292.571v-109.714h54.857c30.286 0 54.857-24.571 54.857-54.857v-182.857c0-30.286-24.571-54.857-54.857-54.857h-182.857c-30.286 0-54.857 24.571-54.857 54.857v182.857c0 30.286 24.571 54.857 54.857 54.857h54.857v109.714h-292.571v-109.714h54.857c30.286 0 54.857-24.571 54.857-54.857v-182.857c0-30.286-24.571-54.857-54.857-54.857h-182.857c-30.286 0-54.857 24.571-54.857 54.857v182.857c0 30.286 24.571 54.857 54.857 54.857h54.857v109.714c0 40 33.143 73.143 73.143 73.143h292.571v109.714h-54.857c-30.286 0-54.857 24.571-54.857 54.857v182.857c0 30.286 24.571 54.857 54.857 54.857h182.857c30.286 0 54.857-24.571 54.857-54.857v-182.857c0-30.286-24.571-54.857-54.857-54.857h-54.857v-109.714h292.571c40 0 73.143-33.143 73.143-73.143v-109.714h54.857c30.286 0 54.857-24.571 54.857-54.857z" />
<glyph unicode="&#xf141;" glyph-name="ellipsis-h" data-tags="ellipsis-h" horiz-adv-x="805" d="M219.429 530.286v-109.714c0-30.286-24.571-54.857-54.857-54.857h-109.714c-30.286 0-54.857 24.571-54.857 54.857v109.714c0 30.286 24.571 54.857 54.857 54.857h109.714c30.286 0 54.857-24.571 54.857-54.857zM512 530.286v-109.714c0-30.286-24.571-54.857-54.857-54.857h-109.714c-30.286 0-54.857 24.571-54.857 54.857v109.714c0 30.286 24.571 54.857 54.857 54.857h109.714c30.286 0 54.857-24.571 54.857-54.857zM804.571 530.286v-109.714c0-30.286-24.571-54.857-54.857-54.857h-109.714c-30.286 0-54.857 24.571-54.857 54.857v109.714c0 30.286 24.571 54.857 54.857 54.857h109.714c30.286 0 54.857-24.571 54.857-54.857z" />
<glyph unicode="&#xf142;" glyph-name="ellipsis-v" data-tags="ellipsis-v" horiz-adv-x="219" d="M219.429 237.714v-109.714c0-30.286-24.571-54.857-54.857-54.857h-109.714c-30.286 0-54.857 24.571-54.857 54.857v109.714c0 30.286 24.571 54.857 54.857 54.857h109.714c30.286 0 54.857-24.571 54.857-54.857zM219.429 530.286v-109.714c0-30.286-24.571-54.857-54.857-54.857h-109.714c-30.286 0-54.857 24.571-54.857 54.857v109.714c0 30.286 24.571 54.857 54.857 54.857h109.714c30.286 0 54.857-24.571 54.857-54.857zM219.429 822.857v-109.714c0-30.286-24.571-54.857-54.857-54.857h-109.714c-30.286 0-54.857 24.571-54.857 54.857v109.714c0 30.286 24.571 54.857 54.857 54.857h109.714c30.286 0 54.857-24.571 54.857-54.857z" />
<glyph unicode="&#xf15d;" glyph-name="sort-alpha-asc" data-tags="sort-alpha-asc" horiz-adv-x="966" d="M680.571 717.714h101.143l-41.143 124.571-6.857 26.857c-0.571 4.571-1.143 8-1.143 11.429h-2.286l-1.714-11.429c-1.714-6.857-2.286-15.429-6.286-26.857zM420.571 128c0-5.143-2.286-9.714-5.714-13.714l-182.286-182.286c-4-3.429-8.571-5.143-13.143-5.143s-9.143 1.714-13.143 5.143l-182.857 182.857c-5.143 5.714-6.857 13.143-4 20s9.714 11.429 17.143 11.429h109.714v786.286c0 10.286 8 18.286 18.286 18.286h109.714c10.286 0 18.286-8 18.286-18.286v-786.286h109.714c10.286 0 18.286-8 18.286-18.286zM898.286 60v-133.143h-333.714v51.429l210.857 302.286c4.571 6.857 9.143 12.571 12 15.429l6.286 5.143v1.714c-2.286 0-4.571-0.571-8-0.571-4.571-1.143-10.286-1.714-17.143-1.714h-132.571v-65.714h-68.571v130.857h324v-50.857l-210.857-302.857c-3.429-5.143-8-10.286-12-14.857l-6.286-6.286v-1.143l8 1.143c5.143 1.143 10.286 1.143 17.143 1.143h141.714v68h69.143zM949.143 572.571v-60.571h-164.571v60.571h42.857l-26.857 82.286h-138.857l-26.857-82.286h42.857v-60.571h-164v60.571h40l131.429 378.286h92.571l131.429-378.286h40z" />
<glyph unicode="&#xf15e;" glyph-name="sort-alpha-desc" data-tags="sort-alpha-desc" horiz-adv-x="966" d="M680.571 132.571h101.143l-41.143 124.571-6.857 26.857c-0.571 4.571-1.143 8-1.143 11.429h-2.286l-1.714-11.429c-1.714-6.857-2.286-15.429-6.286-26.857zM420.571 128c0-5.143-2.286-9.714-5.714-13.714l-182.286-182.286c-4-3.429-8.571-5.143-13.143-5.143s-9.143 1.714-13.143 5.143l-182.857 182.857c-5.143 5.714-6.857 13.143-4 20s9.714 11.429 17.143 11.429h109.714v786.286c0 10.286 8 18.286 18.286 18.286h109.714c10.286 0 18.286-8 18.286-18.286v-786.286h109.714c10.286 0 18.286-8 18.286-18.286zM949.143-12.572v-60.571h-164.571v60.571h42.857l-26.857 82.286h-138.857l-26.857-82.286h42.857v-60.571h-164v60.571h40l131.429 378.286h92.571l131.429-378.286h40zM898.286 645.143v-133.143h-333.714v51.429l210.857 302.286c4.571 6.857 9.143 12.571 12 15.429l6.286 5.143v1.714c-2.286 0-4.571-0.571-8-0.571-4.571-1.143-10.286-1.714-17.143-1.714h-132.571v-65.714h-68.571v130.857h324v-50.857l-210.857-302.857c-3.429-5.143-8-10.286-12-14.857l-6.286-5.714v-1.714l8 1.714c5.143 0.571 10.286 0.571 17.143 0.571h141.714v68h69.143z" />
<glyph unicode="&#xf160;" glyph-name="sort-amount-asc" data-tags="sort-amount-asc" horiz-adv-x="1041" d="M420.571 128c0-5.143-2.286-9.714-5.714-13.714l-182.286-182.286c-4-3.429-8.571-5.143-13.143-5.143s-9.143 1.714-13.143 5.143l-182.857 182.857c-5.143 5.714-6.857 13.143-4 20s9.714 11.429 17.143 11.429h109.714v786.286c0 10.286 8 18.286 18.286 18.286h109.714c10.286 0 18.286-8 18.286-18.286v-786.286h109.714c10.286 0 18.286-8 18.286-18.286zM1024 54.857v-109.714c0-10.286-8-18.286-18.286-18.286h-475.429c-10.286 0-18.286 8-18.286 18.286v109.714c0 10.286 8 18.286 18.286 18.286h475.429c10.286 0 18.286-8 18.286-18.286zM914.286 347.428v-109.714c0-10.286-8-18.286-18.286-18.286h-365.714c-10.286 0-18.286 8-18.286 18.286v109.714c0 10.286 8 18.286 18.286 18.286h365.714c10.286 0 18.286-8 18.286-18.286zM804.571 640v-109.714c0-10.286-8-18.286-18.286-18.286h-256c-10.286 0-18.286 8-18.286 18.286v109.714c0 10.286 8 18.286 18.286 18.286h256c10.286 0 18.286-8 18.286-18.286zM694.857 932.571v-109.714c0-10.286-8-18.286-18.286-18.286h-146.286c-10.286 0-18.286 8-18.286 18.286v109.714c0 10.286 8 18.286 18.286 18.286h146.286c10.286 0 18.286-8 18.286-18.286z" />
</font>
</defs>
</svg>
